<?xml version="1.0" standalone="yes"?>
<svg xmlns="http://www.w3.org/2000/svg" width="443" height="448">
<path style="fill:#040306; stroke:none;" d="M0 0L0 448L443 448L443 0L0 0z"/>
<path style="fill:#fd86fa; stroke:none;" d="M215 7C216.478 7.98566 216.203 8 218 8L219 4C217.051 4.93573 216.45 5.39233 215 7z"/>
<path style="fill:#a162d3; stroke:none;" d="M218 8L216 7L214 11L215 14C212.529 15.2809 211.744 16.3202 211 19C209.977 17.4661 210.195 17.5977 209 17C208.719 19.1162 208.4 18.9375 210 20C207.116 24.6904 203.886 30.1449 200 34L201 37L198 36L199 40C196.186 42.1281 194.64 45.5583 192 48C191.781 50.2617 191.996 50.0257 190 51C189.725 53.7902 189.39 54.5549 187 56C186.823 57.645 186.859 57.6469 186 59L187 62C182.597 63.8897 177.261 71.7409 182.603 75.9722C184.281 77.3013 187.008 76.9855 189 76.9992C193.894 77.033 200.88 78.4159 204 74C197.229 74 190.716 73.8487 184 73C186.442 60.4621 199.248 50.9506 201 38C202.023 39.5339 201.805 39.4023 203 40C206.563 28.4606 217.013 19.5017 220 8C225.872 9.76138 228.255 16.6859 231.166 21.679C237.836 33.1216 245.601 44.3937 251.674 56.1705C253.459 59.6306 260.044 67.7813 257.878 71.6829C255.429 76.0956 243.301 74 239 74L239 99C228.194 95.8059 214.256 98 203 98C204.56 102.701 208.633 101.998 213 102L242 102C242 93.4788 242.982 84.3265 241 76C247.818 77.6231 255.029 77 262 77L261 73C263.698 72.422 263.789 71.7386 264 69C261.229 69 260.927 66.5622 261 64L258 64C258.842 62.0806 259.078 61.0832 259 59C255.035 59.1416 255.196 54.2554 252 53C252.48 50.6404 252.519 49.3374 252 47C251.727 48.3282 251.784 48.5775 252 50C250.616 47.7455 250.168 46.6223 250 44L247 45L248 42C244.821 39.0056 242.492 35.3812 242 31C238.333 29.0271 238.007 25.417 235 23L236 19L233 20C232.798 18.15 232.798 16.85 233 15L230 16L232 13C230.255 12.11 228.875 11.5471 227 11L228 6C226.805 6.59772 227.023 6.46609 226 8C223.758 3.72318 219.892 3.28839 218 8z"/>
<path style="fill:#fd86fa; stroke:none;" d="M224 4L226 8C226.558 5.69174 225.996 5.24365 224 4M214 8C214.406 10.0924 214.217 10.0197 216 11C215.316 9.42007 215.195 9.22272 214 8M220 8C217.784 13.3978 213.879 17.5689 211.103 22.615C204.794 34.086 197.952 45.2397 191.844 56.8696C189.043 62.2042 184.673 66.8912 184 73C190.642 74.2331 197.268 74 204 74C203.455 75.6352 203.635 75.455 202 76C203.351 83.2784 203 90.6232 203 98C214.593 98 227.69 96.3074 239 99L239 74C243.177 74 255.205 76.0573 257.958 72.3966C261.058 68.2734 253.932 59.7949 252.116 56.1705C246.033 44.036 237.822 32.656 231.166 20.8302C228.386 15.8912 226.079 9.0025 220 8M227 9C228.229 10.8699 228.868 11.2235 231 12C229.55 10.3925 228.949 9.9357 227 9z"/>
<path style="fill:#a162d3; stroke:none;" d="M230 10L231 11L230 10M212 12L213 13L212 12z"/>
<path style="fill:#fd86fa; stroke:none;" d="M211 16C213.121 14.9187 213.919 14.1208 215 12C212.508 12.97 211.854 13.4749 211 16M230 16C231.58 15.3164 231.777 15.1952 233 14C230.908 14.4057 230.98 14.2166 230 16M209 16L210 19C210.685 17.7519 210.749 17.4513 211 16L209 16M232 16C232.866 18.6479 233.23 19.0835 236 19C234.688 17.5409 233.769 16.8428 232 16M208 20L208 22L210 22L210 20L208 20M235 21L235 23L237 23L237 21L235 21M207 22C206.043 23.5166 205.613 24.3386 205 26C206.996 24.7563 207.558 24.3082 207 22M237 24C237.596 27.7103 238.313 29.8065 242 31C240.768 28.213 239.485 25.7735 237 24M203 27L203 29L205 29L205 27L203 27z"/>
<path style="fill:#040306; stroke:none;" d="M207.333 27.6667C207.278 27.722 207.222 28.7779 207.667 28.3333C207.722 28.2776 207.778 27.2223 207.333 27.6667z"/>
<path style="fill:#fd86fa; stroke:none;" d="M202 30C201.043 31.5166 200.613 32.3387 200 34C201.86 32.7345 202.369 32.2226 202 30M241 32L241 34L243 34L243 32L241 32M198 35C199.223 36.1952 199.42 36.3164 201 37C200.02 35.2166 200.092 35.4057 198 35M243 35C243.944 38.0594 245.202 40.3916 248 42C246.966 38.7913 245.892 36.7724 243 35M197 38L197 40L199 40L199 38L197 38z"/>
<path style="fill:#040306; stroke:none;" d="M201.333 38.6667C201.278 38.7221 201.222 39.7779 201.667 39.3333C201.722 39.2777 201.778 38.2223 201.333 38.6667z"/>
<path style="fill:#fd86fa; stroke:none;" d="M195 41L194 45C196.035 43.7741 196.326 43.2973 197 41L195 41M247 45C248.58 44.3164 248.777 44.1952 250 43C247.908 43.4057 247.98 43.2167 247 45M192 46L192 48L194 48L194 46L192 46M249 46C249.936 47.9485 250.392 48.5502 252 50C251.223 47.8682 250.87 47.2292 249 46M191 49L191 51L193 51L193 49L191 49M252 51L252 53L254 53L254 51L252 51M189 52L187 56C189.525 55.1457 190.03 54.4917 191 52L189 52M254 54C254.776 56.1317 255.13 56.7708 257 58C256.326 55.7026 256.035 55.2259 254 54M186 57L186 59L188 59L188 57L186 57z"/>
<path style="fill:#040306; stroke:none;" d="M254.333 58.6667C254.278 58.7221 254.222 59.7778 254.667 59.3333C254.722 59.2777 254.778 58.2223 254.333 58.6667z"/>
<path style="fill:#fd86fa; stroke:none;" d="M257.333 58.6667C257.278 58.7223 257.222 59.7777 257.667 59.3333C257.722 59.2778 257.778 58.2222 257.333 58.6667M184 60L183 64C185.121 62.9187 185.919 62.1208 187 60L184 60z"/>
<path style="fill:#a162d3; stroke:none;" d="M183 61L184 62L183 61z"/>
<path style="fill:#fd86fa; stroke:none;" d="M258 62C258.98 63.7833 258.908 63.5943 261 64C259.777 62.8048 259.58 62.6836 258 62M182.333 65.6667C182.278 65.7221 182.222 66.7778 182.667 66.3333C182.722 66.2777 182.778 65.2223 182.333 65.6667M260 65L260 67L262 67L262 65L260 65z"/>
<path style="fill:#a162d3; stroke:none;" d="M66 66L67 70C64.7761 71.9603 65.7277 73.5266 67 76C64.8727 78.6218 67.5958 84.9418 70 87C69.428 89.3772 69.1095 91.5579 69 94L72 93C71.5479 95.4112 71.227 96.3486 73 98C72.166 101.137 71.4114 103.231 75 104C74.4239 106.655 73.9483 108.152 76 110C75.867 112.622 75.9001 113.446 78 115C77.1303 119.072 77.7018 124.193 81 127C80.1312 131.068 80.6422 135.266 84 138C83.428 140.377 83.1095 142.558 83 145L86 144C85.4549 145.635 85.6352 145.455 84 146C87.1633 147.327 90.5856 147 94 147L92 144C96.8026 141.239 100.11 136.649 105 134C108.478 140.044 115.069 143.632 118 150L122 150C122.977 146.373 125.666 144.525 129 143C129.509 137.007 137.143 130.608 143 130L142 127L143 126L147 127C146.927 120.469 144.207 117.683 139.626 113.29C137.708 111.451 133.736 108.708 133.367 105.873C132.823 101.688 140.257 97.9177 142.487 95.0995C144.489 92.5695 143.998 89.0316 144 86L140 87C140 85.2032 139.986 85.4785 139 84C135.497 84.1272 132.522 83.2453 129 84C128.316 81.791 127.92 81.2966 126 80C126.632 81.8969 126.78 81.2196 126 82C121.132 79.0872 117.676 77.668 112 79C109.266 75.6422 105.068 75.1312 101 76C99.1443 73.7204 94.5185 70.862 92 73C88.5945 71.2122 83.5572 68.2995 80 70C78.0877 67.0792 76.3039 67.3095 73 68C71.0745 65.7923 68.875 66.0318 66 66z"/>
<path style="fill:#fd86fa; stroke:none;" d="M73 66L73 68L75 68L75 66L73 66M368 66L368 68L370 68L370 66L368 66z"/>
<path style="fill:#a162d3; stroke:none;" d="M370 68C366.863 67.166 364.769 66.4113 364 70C360.202 69.3076 355.578 69.9707 353 73C347.324 71.668 343.868 73.0872 339 76C337.042 73.9158 330.548 77.6129 328 79C326.217 77.4282 324.399 77.8741 322 78L323 80C320.877 80.3067 320.314 80.3821 319 82C316.11 81.3358 314.047 80.6897 312 83C308.191 82.6824 304.844 84.2535 301 84L302 87L299 86L299 96L302 95L303 96L302 99C311.088 101.076 311.164 110.157 302 112L303 115L302 116L299 115C297.946 119.769 292.311 124.314 299 127L298 129C299.659 129.406 300.242 129.309 302 129C305.609 135.573 315.823 140.238 316 148C318.254 148.749 319.314 149.344 321 151L323 151C327.408 144.86 334.29 137.502 341 134C342.286 136.402 343.492 138.322 344 141L347 140L348 141L347 144L350 143C352.293 149.879 357.534 145.384 360 146C360.274 141.684 363.066 136.921 359 134C358.313 137.081 357.212 139.817 357 143C352.219 141.766 349.353 138.084 346 134.63C344.526 133.112 342.536 130.502 340.127 130.792C335.768 131.315 330.641 138.96 327.626 141.883C326.022 143.437 324.071 145.993 321.551 145.057C317.087 143.4 314.673 138.102 311.886 134.666C308.558 130.564 302.068 125.388 297 124C301.643 119.81 306.377 115.529 310.557 110.87C312.471 108.736 314.292 106.189 313.392 103.17C311.761 97.6944 304.69 94.199 302 89C324.873 85.974 346.859 72.9938 370 72C368.752 71.3152 368.452 71.2512 367 71C378.267 67.7934 373.714 78.4171 372.728 85C371.962 90.1193 369.884 94.3989 368.417 99.2863C366.494 105.689 365.428 112.391 363.584 118.83C362.375 123.053 359.127 129.598 363 133L362 129L365 130C364.89 127.558 364.572 125.377 364 123C366.143 121.142 366.254 118.278 368 116L367 112C369.208 110.074 368.968 107.875 369 105L371 106C371.148 103.784 371.437 102.608 370 101C372.551 96.4564 374.203 93.2545 373 88C376.589 87.231 375.834 85.1374 375 82C376.618 80.686 376.693 80.1228 377 78L379 79L379 68C375.724 66.8301 372.6 65.0258 370 68z"/>
<path style="fill:#fd86fa; stroke:none;" d="M376 66C376.98 67.7834 376.908 67.5943 379 68C377.777 66.8048 377.58 66.6836 376 66M79 67L80 68L79 67M362 67L362 70L364 70L364 67L362 67M65 68L65 70L67 70L67 68L65 68M80.3333 68.6667C80.2777 68.7223 80.2223 69.7777 80.6667 69.3333C80.7221 69.2779 80.7778 68.2221 80.3333 68.6667z"/>
<path style="fill:#040306; stroke:none;" d="M260 68L260 73C260.83 70.9695 260.83 70.0305 260 68z"/>
<path style="fill:#fd86fa; stroke:none;" d="M262 68L262 70C263.635 69.455 263.455 69.6351 264 68L262 68M84 69C84.9802 70.7833 84.9076 70.5943 87 71C85.7773 69.8048 85.58 69.6836 84 69M357 69L357 71L359 71L359 69L357 69M67 72L67 74C70.7518 78.7679 71.3473 87.0374 72.8426 92.9105C75.2327 102.298 78.8344 111.493 80.7145 120.989C81.7661 126.301 83.0087 139.023 88.2562 141.917C93.8699 145.014 97.9926 132.064 103.501 132.38C105.79 132.512 107.852 135.257 109.374 136.71C113.068 140.234 116.254 143.951 121 146C123.284 140.862 128.196 137.072 132.127 133.127C135.612 129.629 138.355 125.907 143 124C141.07 117.224 130.809 113.629 129.843 106.917C128.995 101.027 143.214 96.3341 139.863 90.5347C137.72 86.8244 126.826 85.1671 122.83 84.2207C111.371 81.5061 99.3063 78.5212 88.1698 74.7145C82.2119 72.678 72.8031 69.0289 67 72z"/>
<path style="fill:#040306; stroke:none;" d="M367 70C368.248 70.6848 368.548 70.7488 370 71C368.752 70.3152 368.452 70.2512 367 70z"/>
<path style="fill:#fd86fa; stroke:none;" d="M302 89C304.083 94.9931 310.896 97.5021 312.954 103.17C313.941 105.888 312.277 108.157 310.557 110.112C306.506 114.717 301.836 119.239 297 123C301.111 126.516 306.009 129.406 309.84 133.171C312.267 135.555 313.738 138.601 315.988 141.116C317.784 143.122 320.682 146.311 323.701 145.546C328.027 144.451 332.52 137.671 335.63 134.63C336.97 133.32 338.751 131.091 340.873 131.367C343.224 131.673 345.198 134.548 346.71 136.127C349.847 139.401 352.385 142.329 357 143L359 134L363 136C359.114 119.408 369.943 103.253 372.575 86.9962C373.149 83.4515 376.617 75.479 375.204 72.2793C373.392 68.1731 360.831 72.8905 357.576 74.0108C339.706 80.1613 320.407 84.8973 302 89M90 71L90 73L92 73L92 71L90 71M351 71L351 73L353 73L353 71L351 71M96 72L96 74L99 74L99 72L96 72M261 73L261 75L264 75L264 73L261 73M345.667 73.3333C345.222 73.7777 346.278 73.7223 346.333 73.6667C346.778 73.2222 345.722 73.2779 345.667 73.3333M65 74L65 76L67 76L67 74L65 74M101 76C102.58 75.3164 102.777 75.1951 104 74C101.908 74.4057 101.98 74.2167 101 76M339 74L339 76L341 76L341 74L339 74M107 75C107.98 76.7833 107.908 76.5943 110 77C108.777 75.8048 108.58 75.6836 107 75M334 75L334 77L336 77L336 75L334 75M241 76L241 78L243 78L243 76L241 76M112 77L112 79L114 79L114 77L112 77M328 77L328 79L330 79L330 77L328 77M377.333 78.6667C377.278 78.7223 377.222 79.7777 377.667 79.3333C377.722 79.2779 377.778 78.2222 377.333 78.6667M118 79L118 81L120 81L120 79L118 79M321.667 79.3333C321.222 79.7777 322.278 79.7223 322.333 79.6667C322.778 79.2223 321.722 79.2778 321.667 79.3333M66 80C66.6836 81.58 66.8049 81.7773 68 83C67.3164 81.42 67.1952 81.2228 66 80M124 80C124.98 81.7834 124.908 81.5943 127 82C125.777 80.8048 125.58 80.6836 124 80M317 80L317 82L319 82L319 80L317 80M129 81C129.513 83.4752 129.604 83.5746 132 83C130.861 81.9846 130.388 81.6913 129 81M311.333 81.6667C311.278 81.7223 311.222 82.7777 311.667 82.3333C311.722 82.2778 311.778 81.2222 311.333 81.6667M375 82L375 84L377 84L377 82L375 82M135 83L135 85L138 85L138 83L135 83M304 83L304 85L306 85L306 83L304 83M140 85L140 87L142 87L142 85L140 85M299 85C300.223 86.1952 300.42 86.3164 302 87C301.02 85.2167 301.092 85.4057 299 85M68 87L68 89L70 89L70 87L68 87M373 88C373 89.7969 373.014 89.5214 374 91C375.195 89.7772 375.316 89.58 376 88L373 88M70 93L70 95L72 95L72 93L70 93M147 120C145.481 114.942 136.164 110.376 136.445 105.338C136.654 101.604 142.343 98.3953 144 95C140.462 96.2296 132.245 101.32 132.792 105.873C133.352 110.541 143.053 118.03 147 120M300 95C300.899 97.1236 300.876 97.1007 303 98C302.101 95.8763 302.124 95.8993 300 95M372 95L372 97L374 97L374 95L372 95M71 98L71 100L73 100L73 98L71 98M303 98C304.48 101.166 306.168 102.951 309 105C306.52 107.552 304.496 109.776 303 113C311.444 108.874 311.737 102.089 303 98M370 99L370 101L372 101L372 99L370 99z"/>
<path style="fill:#a162d3; stroke:none;" d="M138 101L139 102L138 101M137 102L138 103L137 102z"/>
<path style="fill:#fd86fa; stroke:none;" d="M72 104C73.2228 105.195 73.42 105.316 75 106C74.0198 104.217 74.0924 104.406 72 104M369 105C369.406 107.092 369.217 107.02 371 108C370.316 106.42 370.195 106.223 369 105M74 110L74 112L76 112L76 110L74 110M367 112L367 114L369 114L369 112L367 112M300 116C302.124 115.101 302.101 115.124 303 113C300.876 113.899 300.899 113.876 300 116M76 115L76 117L78 117L78 115L76 115M295 121C297.687 119.676 298.676 118.687 300 116C297.313 117.324 296.324 118.313 295 121M366 116L366 119C367.195 117.777 367.316 117.58 368 116L366 116M77 121L77 123L79 123L79 121L77 121M208 123C208.406 125.092 208.217 125.02 210 126C209.316 124.42 209.195 124.223 208 123z"/>
<path style="fill:#a162d3; stroke:none;" d="M209 123L210 126C206.31 125.122 201.724 123.883 199 127C195.863 126.166 193.769 125.411 193 129C188.598 128.198 185.781 129.877 182 132C180.937 130.4 181.116 130.719 179 131C179.65 132.3 179.147 132 181 132C179.154 132.913 178.205 133.401 177 135L174 134C172.87 135.4 171.782 136.416 171 138L166 137L168 140L165 139C161.694 143.409 156.627 146.076 154 151L151 150C149.647 150.859 149.645 150.823 148 151L149 154C144.374 157.178 142.467 162.57 137 165L138 168C136.024 169.032 131.451 172.262 134 174L128 181C127.919 182.892 127.866 183.376 127 185L128 188C126.365 187.455 126.545 187.635 126 186C124.94 188.057 124.454 189.243 126 191C123.672 195.434 121.937 200.024 123 205C120.049 207.579 121 212.294 121 216L123 216C123.001 208.839 124.223 201.099 127.039 194.439C130.372 186.558 136.217 178.634 137 170L138 172C143.861 164.908 148.913 157.864 155.887 151.679C168.32 140.653 185.78 132.215 202.09 129.258C242.437 121.945 283.803 141.326 304.324 176.385C311.201 188.134 316.953 202.171 317 216C317.779 214.231 317.912 212.964 318 211C318.644 213.106 318.906 214.795 319 217C320.661 213.041 320 208.263 320 204L317 205C317.576 202.345 318.052 200.848 316 199C316.701 195.893 317.583 193.705 314 193C314.545 191.365 314.365 191.545 316 191C314.861 188.945 315.182 188.951 313 189C312.532 185.521 311.04 182.549 311 179L308 179L310 176C306.847 172.26 302.804 170.263 303 165L300 166L301 163C296.409 160.674 292.633 156.204 292 151C286.505 151.219 279.267 145.357 278 140C276.355 139.823 276.353 139.859 275 139L272 140L273 137C271.108 136.919 270.624 136.866 269 136C266.738 135.781 266.974 135.996 266 134L263 135C262.489 132.443 262.322 133.393 260 132L261 131L257 132C254.502 128.932 250.778 128.311 247 129C246.231 125.411 244.137 126.166 241 127C238.276 123.883 233.69 125.122 230 126C228.824 120.514 213.88 123 209 123z"/>
<path style="fill:#fd86fa; stroke:none;" d="M230 123C230.513 125.475 230.604 125.575 233 125C231.861 123.985 231.388 123.691 230 123M364 123L364 125L366 125L366 123L364 123M197 125L197 127L199 127L199 125L197 125M241 125L241 127L243 127L243 125L241 125M143 126L142 127C142 128.797 142.014 128.521 143 130C144.27 129.027 145.027 128.27 146 127C144.521 126.014 144.797 126 143 126M191 126L191 129L193 129L193 126L191 126M247 126C247.513 128.475 247.604 128.575 250 128C248.861 126.985 248.388 126.691 247 126M295 126C295.936 127.949 296.392 128.55 298 130C298.986 128.522 299 128.797 299 127L295 126M79 127L79 129L81 129L81 127L79 127M186 128L186 130L188 130L188 128L186 128M123 216C121.313 215.782 120.684 215.776 119 216C123.077 222.035 122.526 228.408 120 235L123 234C123.005 282.558 170.758 319.712 216.039 322.946C221.79 323.357 226.485 321.468 232.015 321.053C251.817 319.569 269.624 310.454 284.873 297.95C290.231 293.557 298.822 285.998 300 279C301.939 279.892 302.519 280.402 304 282C305.459 280.688 306.157 279.769 307 278L303 279C304.218 270.866 310.874 264.65 312 256L316 258C312.909 249.861 316.994 242.367 317 234L321 233C318.761 227.156 318.761 222.844 321 217C314.318 212.901 315.631 200.48 312.91 193.576C306.389 177.027 297.549 161.575 283.338 150.31C241.95 117.503 178.736 120.924 144.23 162.662C138.269 169.872 133.841 178.38 130.219 186.95C126.125 196.637 123 205.339 123 216M252 128L252 130L254 130L254 128L252 128M137 134C139.921 132.897 140.897 131.921 142 129C139.079 130.103 138.103 131.079 137 134M300 129C303.004 135.685 310.616 143.397 317 147C315.188 140.597 305.908 131.929 300 129M362 129C362.98 130.783 362.908 130.594 365 131C363.777 129.805 363.58 129.684 362 129M182 130L182 132L184 132L184 130L182 130M257 130L257 132L259 132L259 130L257 130M178 131C178.98 132.783 178.908 132.594 181 133C179.861 131.985 179.388 131.691 178 131M261 131L260 133L262 133C262 131.147 262.3 131.65 261 131M80 133C80.6836 134.58 80.8048 134.777 82 136L82 133L80 133M175 133L175 135L177 135L177 133L175 133M263 133L263 135L265 135L265 133L263 133M92 146C95.6409 144.553 99.6338 138.611 103.285 138.454C108.319 138.237 113.77 147.578 118 150C116.165 143.517 109.224 139.089 105 134C99.7001 135.914 94.4648 140.955 92 146M128 142C131.596 140.247 134.148 137.531 136 134C131.782 135.466 129.467 137.783 128 142M172 134L172 136L174 136L174 134L172 134M266 134L266 137L268 137L268 134L266 134M323 151C329.002 149.301 335.319 142.527 338 137L345 140C343.918 137.73 342.573 135.977 341 134C334.474 136.268 326.012 144.787 323 151z"/>
<path style="fill:#a162d3; stroke:none;" d="M134 136L135 137L134 136z"/>
<path style="fill:#fd86fa; stroke:none;" d="M169 136L169 138L171 138L171 136L169 136M269 136L269 138L271 138L271 136L269 136M273 137C272.014 138.479 272 138.203 272 140C273.766 139.021 273.955 138.778 273 137M82 138L82 140L84 140L84 138L82 138M166 138L166 140L168 140L168 138L166 138M152 151C156.806 148.671 162.591 143.792 165 139C159.269 141.324 154.086 144.998 152 151M275 139L275 141L277 141L277 139L275 139M361 139C360.014 140.479 360 140.203 360 142C361.289 140.557 361.401 140.766 361 139M345 140C345.899 142.124 345.876 142.101 348 143C347.101 140.876 347.124 140.899 345 140M277 141C278.226 143.035 278.703 143.326 281 144C279.55 142.392 278.949 141.936 277 141M126 143L121 149C122.479 149.986 122.203 150 124 150C125.593 147.665 127.046 145.663 128 143L126 143M348 143C349.154 145.249 349.751 145.846 352 147C350.782 144.882 350.133 144.155 348 143M83 146C85.0924 145.594 85.0197 145.783 86 144C84.42 144.684 84.2228 144.805 83 146z"/>
<path style="fill:#a162d3; stroke:none;" d="M95 144L96 145L95 144z"/>
<path style="fill:#fd86fa; stroke:none;" d="M281 144C283.086 148.181 286.411 151.045 291 152L284 144L281 144z"/>
<path style="fill:#a162d3; stroke:none;" d="M284 145L285 146L284 145z"/>
<path style="fill:#fd86fa; stroke:none;" d="M358 145L358 147L360 147C359.455 145.365 359.635 145.545 358 145z"/>
<path style="fill:#a162d3; stroke:none;" d="M152 148L153 149L152 148M287 148L288 149L287 148z"/>
<path style="fill:#fd86fa; stroke:none;" d="M316 148C317.717 149.84 318.566 150.349 321 151C319.535 148.878 318.543 148.526 316 148M149 150L149 152L151 152L151 150L149 150M146 155C148.124 154.101 148.101 154.124 149 152C146.876 152.899 146.899 152.876 146 155M291 152L291 154L293 154L293 152L291 152M293 155C294.754 158.922 296.814 161.723 301 163C299.225 159.443 296.424 156.969 293 155z"/>
<path style="fill:#a162d3; stroke:none;" d="M294 155L295 156L294 155z"/>
<path style="fill:#fd86fa; stroke:none;" d="M144 156C141.812 159.053 139.291 161.423 138 165C141.935 163.093 144.802 160.234 146 156L144 156z"/>
<path style="fill:#a162d3; stroke:none;" d="M297 158L298 159L297 158M141 159L142 160L141 159M138 162L139 163L138 162z"/>
<path style="fill:#fd86fa; stroke:none;" d="M300 164L300 166L302 166L302 164L300 164M135 169C137.124 168.101 137.101 168.124 138 166C135.876 166.899 135.899 166.876 135 169M302 166C302.728 169.425 303.718 170.748 307 172C305.712 169.446 304.483 167.427 302 166M133 170L133 172L135 172L135 170L133 170z"/>
<path style="fill:#040306; stroke:none;" d="M137.333 170.667C137.278 170.722 137.222 171.778 137.667 171.333C137.722 171.278 137.778 170.222 137.333 170.667z"/>
<path style="fill:#a162d3; stroke:none;" d="M306 170L307 171L306 170z"/>
<path style="fill:#fd86fa; stroke:none;" d="M132.667 174.333C132.222 174.778 133.278 174.722 133.333 174.667C133.778 174.222 132.722 174.278 132.667 174.333z"/>
<path style="fill:#a162d3; stroke:none;" d="M199 174C197.802 175.245 197.866 175.074 196 175C196.65 176.3 196.147 176 198 176C196.258 177.111 195.881 177.27 195 179C198.203 178.02 199.9 177.219 201 174L199 174z"/>
<path style="fill:#fd86fa; stroke:none;" d="M307 174L308 175L307 174M130 175L130 177L132 177L132 175L130 175z"/>
<path style="fill:#040306; stroke:none;" d="M196.667 176.333C196.222 176.778 197.278 176.722 197.333 176.667C197.778 176.222 196.722 176.278 196.667 176.333z"/>
<path style="fill:#fd86fa; stroke:none;" d="M308 177L308 179L310 179L310 177L308 177z"/>
<path style="fill:#040306; stroke:none;" d="M195 179C192.503 182.654 189.062 186.508 188.379 191.039C187.833 194.658 189.503 198.232 188.501 201.83C187.746 204.543 185.822 206.855 184.71 209.428C182.702 214.075 181.352 219.087 178.981 223.571C176.13 228.965 172.582 227.574 168.188 230.564C164.964 232.758 163.397 236.529 162 240L170 240C169.956 245.229 168.203 249.078 167 254L164 253C163.666 259.114 160.457 263.927 156 268C165.72 272.078 175.322 266.923 178 257C176.087 256.328 173.043 255.878 171.66 254.261C168.836 250.959 176.079 243.705 177 240C181.107 240 186.788 241.005 190.536 239.062C193.707 237.419 196.679 231.523 200.85 232.737C204.134 233.693 204.979 238 206.155 240.715C209.376 248.148 211.43 257.505 216.509 263.942C219.792 268.103 224.047 268.754 226.862 263.966C227.788 262.391 228.371 260.703 229 259C222.457 257.978 220.571 251.659 218.439 245.996L206.282 214.015C204.279 208.729 201.329 203.783 202 198C196.747 193.894 194.743 185.108 197 179L195 179z"/>
<path style="fill:#fd86fa; stroke:none;" d="M128.667 180.333C128.222 180.778 129.278 180.722 129.333 180.667C129.778 180.222 128.722 180.278 128.667 180.333z"/>
<path style="fill:#a162d3; stroke:none;" d="M191 180C190.356 182.106 190.094 183.795 190 186L194 181C192.521 180.014 192.797 180 191 180z"/>
<path style="fill:#fd86fa; stroke:none;" d="M310 180C310.648 182.394 311.032 183.536 313 185C312.352 182.607 311.968 181.464 310 180z"/>
<path style="fill:#a162d3; stroke:none;" d="M195 181C195.221 184.007 195.455 185.365 198 187C197.499 184.987 197.363 183.961 198 182C196.521 181.014 196.797 181 195 181z"/>
<path style="fill:#fd86fa; stroke:none;" d="M64 182C64.0313 183.832 63.9205 183.559 65 185C64.7488 183.548 64.6848 183.248 64 182z"/>
<path style="fill:#a162d3; stroke:none;" d="M65 185C63.5215 184.014 63.7968 184 62 184L61 188L56 187C56.6498 188.3 56.1468 188 58 188C55.0896 189.742 51.9741 191.235 50 194L45 193L47 196L44 195L42 199L39 198C37.6468 198.859 37.645 198.823 36 199L31 205L26 204C26.6498 205.3 26.1468 205 28 205C26.2575 206.111 25.8807 206.27 25 208L20 207L22 210C20.1501 210.202 18.8499 210.202 17 210C16.2736 212.179 16.5605 211.78 15 211C14.0143 212.479 14 212.203 14 214L11 213C8.77586 217.163 1.15105 219.739 3.59336 225.624C5.09401 229.241 9.0312 229.916 10 234L14 233C14.9802 234.783 14.9076 234.594 17 235C17.0324 236.734 17.001 236.507 18 238L21 236L22 240L25 239C26.4638 240.968 27.6064 241.352 30 242L29 244L33 246L36 245C35.4549 246.635 35.6352 246.455 34 247C35.9433 247.622 36.949 247.436 39 247L38 250C41.8439 249.888 44.3754 251.244 47 254L50 253C51.3556 255.052 53.2168 256.299 55 258L52 257C54.2243 258.569 55.2936 258.484 58 258L59 259L58 262C61.9523 261.341 62.2536 261.254 65 264L64 265L74 265L74 244C80.8713 246.031 88.8633 245 96 245L96 233L93 233L93 241L72 241C72 245.654 72.1775 250.346 71.9807 254.996C71.9031 256.831 71.8945 259.498 69.9823 260.481C68.2566 261.369 66.1793 259.868 64.7392 259.051C60.8842 256.864 57.2612 254.297 53.4105 252.094C41.6375 245.36 30.0772 238.066 18.0108 231.951C13.4699 229.649 10.0093 226.309 5 225L5 222C19.4831 218.216 30.6521 205.431 45 201C44.3501 199.7 44.8532 200 43 200C51.8674 196.553 62.9423 191.453 70 185C72.9355 191.928 72 199.603 72 207L80 207C78.7824 203.251 76.8051 202.694 73 203C74.5698 198.706 75.5025 188.504 73.6667 184.111C72.0625 180.272 65.7607 181.45 65 185z"/>
<path style="fill:#fd86fa; stroke:none;" d="M127 182C127.406 184.092 127.217 184.02 129 185C128.316 183.42 128.195 183.223 127 182M370 182C370.406 184.092 370.217 184.02 372 185C371.316 183.42 371.195 183.223 370 182z"/>
<path style="fill:#a162d3; stroke:none;" d="M371 182L372 185C370.365 184.455 370.545 184.635 370 183C367.814 188.209 367.794 198.79 370 204C366.709 203.443 365.364 203.641 363 206C366.041 206.9 368.831 206.992 372 207L372 187C379.758 187.563 386.206 193.115 392.665 196.961C402.531 202.837 412.785 208.071 422.664 213.961C425.566 215.691 438.112 220.294 436.507 224.775C435.753 226.88 433.048 227.46 431.285 228.36C427.336 230.377 423.317 232.648 419.438 234.804C403.874 243.454 389.283 254.837 373 262C371.377 255.182 372 247.971 372 241L347 241L347 206C343.651 208.171 344.008 211.213 344 215L344 235C344.001 237.617 343.25 242.109 345.603 243.972C347.492 245.468 350.764 244.995 353 245C358.715 245.012 364.411 245.331 370 244C368.998 248.209 366.689 260.871 370.603 263.972C372.871 265.769 377.297 265 380 265C379.35 263.7 379.853 264 378 264C382.053 261.599 385.111 258.788 390 259L388 256L392 257L393 253C394.635 253.545 394.455 253.365 395 255L398 254C397.883 250.736 400.178 250.466 403 251L404 247L409 248L407 245C409.116 245.281 408.938 245.6 410 244L412 244L412 246L415 245L413 242L419 242L418 239L421 240L422 236L426 237C429.314 233.493 433.098 231.025 438 231L437 228L441 227C440.723 218.606 434.027 217.337 429 212C426.738 211.781 426.974 211.996 426 210C421.177 209.207 416.436 206.462 413 203L410 204L407 199L404 200L403 196C399.881 196.291 398.834 196.074 398 193L393 194C390.108 189.454 384.642 187.938 381 184L378 185C377.204 181.284 374.363 182 371 182z"/>
<path style="fill:#fd86fa; stroke:none;" d="M378 182C378.406 184.092 378.217 184.02 380 185C379.316 183.42 379.195 183.223 378 182M60 184L59 188C60.8698 186.771 61.2235 186.132 62 184L60 184M381 184L381 186L383 186L383 184L381 184M69 185C65.7447 188.28 61.5608 189.823 57.5895 192.094C51.2355 195.728 44.9843 199.512 38.6142 203.1C27.6456 209.277 16.7923 217.521 5 222L5 225C9.47815 226.702 12.827 229.786 17.0386 231.951C29.387 238.297 41.3785 245.594 53.4105 252.59C56.7739 254.545 66.4443 263.039 70.4113 260.633C72.2034 259.546 71.9614 256.777 71.9954 254.996C72.0842 250.334 72 245.663 72 241L93 241C93.0411 237.464 92.9106 235.002 96 233C94.6941 229.468 94.5899 227.541 96 224C91.0048 220.762 93 211.383 93 206L72 207C72 200.27 74.1095 190.004 69 185M126 186L126 188L128 188L128 186L126 186M384 186C385.226 188.035 385.703 188.326 388 189C386.771 187.13 386.132 186.776 384 186M313.333 187.667C313.278 187.722 313.222 188.778 313.667 188.333C313.722 188.278 313.778 187.222 313.333 187.667M372 187L372 207L347 206L347 241L372 241C372 247.839 371.053 255.413 373 262C380.051 259.772 386.007 255.128 392.17 251.245C401.239 245.529 410.877 239.918 420.285 234.804C424.2 232.676 428.181 230.359 432.155 228.36C433.916 227.475 436.431 226.909 437.11 224.775C438.618 220.043 426.531 215.752 423.46 213.961C413.521 208.166 403.418 202.703 393.464 196.961C386.611 193.009 380.254 187.264 372 187M55 188C56.2484 188.685 56.5483 188.749 58 189C56.7517 188.315 56.4515 188.251 55 188z"/>
<path style="fill:#a162d3; stroke:none;" d="M250.333 188.667C250.278 188.722 250.222 189.778 250.667 189.333C250.722 189.278 250.778 188.222 250.333 188.667z"/>
<path style="fill:#040306; stroke:none;" d="M251 188C250.273 193.074 247.081 196.485 245 201C253.061 198.867 260.685 198.957 269 199.001C271.855 199.016 276.172 198.614 277.953 201.434C279.874 204.476 276.756 208.955 276 212C283.237 207.014 286.03 196.362 292 190C288.041 188.339 283.26 189 279 189C269.866 189 259.923 190.125 251 188z"/>
<path style="fill:#a162d3; stroke:none;" d="M252 188C256.215 189.769 261.465 189 266 189L292 189C287.785 187.231 282.536 188 278 188L252 188z"/>
<path style="fill:#fd86fa; stroke:none;" d="M51 192C53.1318 191.224 53.7708 190.87 55 189C52.7026 189.674 52.2259 189.965 51 192z"/>
<path style="fill:#a162d3; stroke:none;" d="M197 189L198 195C199.04 192.471 199.093 190.824 197 189z"/>
<path style="fill:#fd86fa; stroke:none;" d="M389 189C390.669 191.94 392.663 193.386 396 193C393.813 190.968 391.845 189.906 389 189z"/>
<path style="fill:#a162d3; stroke:none;" d="M187 190L187 195C187.83 192.969 187.83 192.03 187 190z"/>
<path style="fill:#fd86fa; stroke:none;" d="M124 191L124 193L126 193L126 191L124 191M314 191L314 193L316 193L316 191L314 191M48 192L48 194L50 194L50 192L48 192z"/>
<path style="fill:#a162d3; stroke:none;" d="M247 192L247 195C248.797 195 248.521 194.986 250 194C248.777 192.805 248.58 192.684 247 192z"/>
<path style="fill:#fd86fa; stroke:none;" d="M45 194L45 196L47 196L47 194L45 194M397 194C398.446 196.283 399.311 196.582 402 197C400.536 195.032 399.394 194.648 397 194M40 199C42.1208 197.919 42.9187 197.121 44 195C41.5083 195.97 40.8544 196.475 40 199M123 196C122.014 197.479 122 197.203 122 199C123.766 198.021 123.955 197.778 123 196M403 196C403.674 198.297 403.965 198.774 406 200C405.064 198.051 404.608 197.45 403 196z"/>
<path style="fill:#a162d3; stroke:none;" d="M200.667 197.333C200.222 197.778 201.278 197.722 201.333 197.667C201.778 197.222 200.722 197.278 200.667 197.333M244 197L244 199L246 199L246 197L244 197z"/>
<path style="fill:#fd86fa; stroke:none;" d="M316 197L316 199L318 199L318 197L316 197M37 198L37 200L39 200L39 198L37 198z"/>
<path style="fill:#040306; stroke:none;" d="M43.6667 199.333C43.2222 199.778 44.2778 199.722 44.3333 199.667C44.7778 199.222 43.7222 199.278 43.6667 199.333z"/>
<path style="fill:#a162d3; stroke:none;" d="M201 199L201 202C201.696 200.446 201.696 200.554 201 199M249 199C256.649 202.21 268.712 200 277 200C269.351 196.79 257.288 199 249 199z"/>
<path style="fill:#fd86fa; stroke:none;" d="M31 203C33.3936 202.352 34.5362 201.968 36 200C33.6064 200.648 32.4638 201.032 31 203M407 200C408.523 202.633 410.031 203.459 413 203C411.02 201.116 409.69 200.531 407 200M74 201L73 203L75 203C75 201.147 75.2997 201.65 74 201z"/>
<path style="fill:#a162d3; stroke:none;" d="M245.667 201.333C245.222 201.778 246.278 201.722 246.333 201.667C246.778 201.222 245.722 201.278 245.667 201.333M241 202C241.98 203.783 241.908 203.594 244 204C242.777 202.805 242.58 202.684 241 202z"/>
<path style="fill:#040306; stroke:none;" d="M245.667 202.333C245.222 202.778 246.278 202.722 246.333 202.667C246.778 202.222 245.722 202.278 245.667 202.333z"/>
<path style="fill:#fd86fa; stroke:none;" d="M368 202L368 204L370 204L370 202L368 202M29 203L29 205L31 205L31 203L29 203M121 203L121 205L123 205L123 203L121 203z"/>
<path style="fill:#a162d3; stroke:none;" d="M185 203L183 208L184 209L186 209L187 203L185 203M246 203L247 204L246 203z"/>
<path style="fill:#fd86fa; stroke:none;" d="M317 203L317 205L319 205L319 203L317 203M413 203C414.229 204.87 414.868 205.224 417 206C415.774 203.965 415.297 203.674 413 203M26.6667 205.333C26.2222 205.778 27.2778 205.722 27.3333 205.667C27.7778 205.222 26.7222 205.278 26.6667 205.333M23 206L23 208L25 208L25 206L23 206z"/>
<path style="fill:#a162d3; stroke:none;" d="M93 206L93 224L96 224L96 206L93 206z"/>
<path style="fill:#fd86fa; stroke:none;" d="M418 206C419.811 208.631 422.055 209.802 425 211C423.275 207.966 421.322 206.995 418 206z"/>
<path style="fill:#a162d3; stroke:none;" d="M277 207L278 208L277 207M422 207L423 208L422 207z"/>
<path style="fill:#fd86fa; stroke:none;" d="M18 211C20.2974 210.326 20.7741 210.035 22 208C19.8683 208.776 19.2292 209.13 18 211M188 214C183.459 217.617 183.016 224.566 183 230L200 230C199.985 225.85 200.387 222.456 196 221L195 209C190.938 209.133 188.214 209.541 188 214M16.3333 210.667C16.2778 210.722 16.2223 211.778 16.6667 211.333C16.7222 211.278 16.7778 210.222 16.3333 210.667z"/>
<path style="fill:#a162d3; stroke:none;" d="M205 210L205 212C206.635 211.455 206.455 211.635 207 210L205 210z"/>
<path style="fill:#fd86fa; stroke:none;" d="M426 210C426.406 212.092 426.217 212.02 428 213C427.316 211.42 427.195 211.223 426 210z"/>
<path style="fill:#040306; stroke:none;" d="M318 211L318 216C318.83 213.97 318.83 213.03 318 211z"/>
<path style="fill:#fd86fa; stroke:none;" d="M12 212L12 214L14 214L14 212L12 212z"/>
<path style="fill:#040306; stroke:none;" d="M274 212L270 220C272.971 217.701 274.641 215.505 276 212L274 212z"/>
<path style="fill:#fd86fa; stroke:none;" d="M429 212C429.98 213.783 429.908 213.594 432 214C430.777 212.805 430.58 212.684 429 212z"/>
<path style="fill:#a162d3; stroke:none;" d="M187 213L188 214L187 213z"/>
<path style="fill:#fd86fa; stroke:none;" d="M7 217C9.29737 216.326 9.77408 216.035 11 214C8.86827 214.776 8.22921 215.13 7 217z"/>
<path style="fill:#a162d3; stroke:none;" d="M196 214L196 219C196.83 216.969 196.83 216.031 196 214z"/>
<path style="fill:#fd86fa; stroke:none;" d="M432 214C433.229 215.87 433.868 216.223 436 217C434.55 215.392 433.949 214.936 432 214z"/>
<path style="fill:#a162d3; stroke:none;" d="M119 215L120 216L119 215M435 215L436 216L435 215M181 216L182 217L181 216M207 216L208 217L207 216M271 216L272 217L271 216M274 216C273.014 217.478 273 217.203 273 219C274.766 218.021 274.955 217.778 274 216z"/>
<path style="fill:#fd86fa; stroke:none;" d="M3 220C5.12363 219.101 5.1007 219.124 6 217C3.87639 217.899 3.89929 217.876 3 220z"/>
<path style="fill:#a162d3; stroke:none;" d="M119 217L119 235C123.194 231.01 123.915 220.545 119 217M208 217L209 224C209.985 221.668 209.981 219.543 210 217L208 217z"/>
<path style="fill:#fd86fa; stroke:none;" d="M437 217C438.154 219.249 438.751 219.846 441 221C439.846 218.751 439.249 218.154 437 217z"/>
<path style="fill:#a162d3; stroke:none;" d="M184 219L185 220L184 219M271 219L272 220L271 219M319 219L319 231L321 231L321 219L319 219M196.667 220.333C196.222 220.778 197.278 220.722 197.333 220.667C197.778 220.222 196.722 220.278 196.667 220.333M183 221L184 222L183 221z"/>
<path style="fill:#040306; stroke:none;" d="M267 224C268.924 222.999 269.098 222.923 270 221C268.078 221.902 268.001 222.076 267 224z"/>
<path style="fill:#a162d3; stroke:none;" d="M268 223L269 224L268 223M95 225L96 226L95 225M176 225L176 229C177.081 227.542 177.436 226.752 178 225L176 225z"/>
<path style="fill:#040306; stroke:none;" d="M264 229C265.457 227.897 265.897 227.457 267 226C264.876 226.899 264.899 226.876 264 229z"/>
<path style="fill:#fd86fa; stroke:none;" d="M3 227C4.65995 230.223 7.05914 231.926 10 234C10.9857 232.521 11 232.797 11 231C8.34742 229.497 5.88908 227.973 3 227M438 231C439.459 229.688 440.157 228.769 441 227C438.352 227.866 437.916 228.23 438 231z"/>
<path style="fill:#a162d3; stroke:none;" d="M212 229C212.684 230.58 212.805 230.777 214 232C213.316 230.42 213.195 230.223 212 229M263 229L262 231C263.263 230.029 263.392 230.306 263 229M167 230L168 231L167 230M184 230C188.724 231.982 194.91 231 200 231C195.276 229.018 189.09 230 184 230z"/>
<path style="fill:#040306; stroke:none;" d="M263 230L262 232L264 232C264 230.147 264.3 230.65 263 230z"/>
<path style="fill:#fd86fa; stroke:none;" d="M429 235C432.362 234.11 434.377 233.132 436 230C432.941 230.944 430.608 232.202 429 235z"/>
<path style="fill:#a162d3; stroke:none;" d="M199 232C200.506 232.683 201.315 232.826 203 233C201.494 232.317 200.685 232.174 199 232z"/>
<path style="fill:#040306; stroke:none;" d="M261.333 232.667C261.278 232.722 261.222 233.778 261.667 233.333C261.722 233.278 261.778 232.222 261.333 232.667z"/>
<path style="fill:#fd86fa; stroke:none;" d="M12 233L12 235L14 235L14 233L12 233z"/>
<path style="fill:#a162d3; stroke:none;" d="M320 233L321 234L320 233M121 234C121 238.696 120.789 242.752 123 247C121.563 248.608 121.852 249.784 122 252L124 251C124.017 255.172 124.119 258.758 128 261L127 265C128.541 265.925 130.05 265.95 128 268L127 267C130.25 270.44 132.537 273.132 133 278C137.919 280.617 138.558 285.005 140 290C141.554 289.223 141.15 289.725 140 288C145.876 292.229 151.074 297.774 156.177 302.9C158.574 305.307 161.494 306.458 162 310C164.083 310.078 165.081 309.842 167 309L168 313L171 312C171.56 314.801 174.402 315.441 177 317L176 318L181 317L181 319L185 318C185.689 321.197 187.054 320.746 190 320C192.969 323.646 197.649 323.996 202 323C204.103 325.407 206.894 324.994 210 325L229 325C232.317 324.999 235.724 325.604 238 323C244.492 324.528 248.735 320.587 255 321L255 318C258.648 318.787 261.07 318.341 263 315L266 316C267.353 315.141 267.355 315.177 269 315C269.974 313.004 269.738 313.219 272 313C273.632 311.001 274.461 310.418 277 310L280 304L283 305C284.353 304.141 284.355 304.177 286 304L285 301L286 300L289 301C290.289 294.806 298.537 286.16 304 283C303.03 280.508 302.525 279.854 300 279C298.951 282.447 296.533 284.217 294.463 287.094C285.501 299.551 271.97 307.227 258.464 313.674C212.06 335.821 156.239 313.009 132.87 268.3C127.391 257.818 123.009 245.976 123 234L121 234M195 234L196 235L195 234M317 234C317 235.944 317.212 238.05 316.889 239.972C316.181 244.19 310.549 254.618 317 256C316.873 252.432 317.967 249.541 317 246L320 246L320 234L317 234z"/>
<path style="fill:#fd86fa; stroke:none;" d="M15 235L15 237C16.6351 236.455 16.455 236.635 17 235L15 235z"/>
<path style="fill:#a162d3; stroke:none;" d="M194 235L195 236L194 235z"/>
<path style="fill:#040306; stroke:none;" d="M259 235L257 239C258.63 237.485 259.163 237.145 259 235z"/>
<path style="fill:#fd86fa; stroke:none;" d="M426 235L426 237L428 237L428 235L426 235M19 236C19.7765 238.132 20.1302 238.771 22 240C21.3265 237.703 21.0347 237.226 19 236z"/>
<path style="fill:#a162d3; stroke:none;" d="M204 236C204.168 238.403 204.197 239.46 206 241C205.52 239.04 205.062 237.693 204 236M214 236L215 237L214 236M258 236L259 237L258 236z"/>
<path style="fill:#fd86fa; stroke:none;" d="M422 236L421 240C423.121 238.919 423.919 238.121 425 236L422 236z"/>
<path style="fill:#a162d3; stroke:none;" d="M215 237L216 238L215 237M162 238L163 239L162 238M191 238L192 239L191 238M216 238L216 240C217.635 239.455 217.455 239.635 218 238L216 238M258 238L259 239L258 238M423 238L424 239L423 238z"/>
<path style="fill:#fd86fa; stroke:none;" d="M23 239C24.5172 241.831 26.2934 243.262 29 245C29.9857 243.521 30 243.797 30 242L23 239z"/>
<path style="fill:#a162d3; stroke:none;" d="M257 239L256 243C257.656 241.596 257.751 241.046 257 239z"/>
<path style="fill:#fd86fa; stroke:none;" d="M418 239C418.684 240.58 418.805 240.777 420 242L421 241L420 239L418 239z"/>
<path style="fill:#040306; stroke:none;" d="M256 240C250.128 246.417 243.363 256.011 240 264C247.089 262.008 253.8 261.39 261 263.431C266.353 264.948 271.313 268.379 277 268.651C281.565 268.87 283.861 266.012 285 262L289 262C288.402 260.805 288.534 261.023 287 260C288.274 258.659 289.041 257.597 290 256C276.88 259.115 266.614 249.14 254 249C254.439 245.909 256.203 243.017 256 240z"/>
<path style="fill:#a162d3; stroke:none;" d="M252 241L252 243L254 243L254 241L252 241z"/>
<path style="fill:#fd86fa; stroke:none;" d="M413 244C415.297 243.326 415.774 243.035 417 241C414.868 241.776 414.229 242.13 413 244z"/>
<path style="fill:#a162d3; stroke:none;" d="M207 242C207.032 244.875 206.792 247.074 209 249C208.652 246.428 208.222 244.283 207 242M175 243L176 244L175 243z"/>
<path style="fill:#fd86fa; stroke:none;" d="M31 244L31 246L33 246L33 244L31 244M74 244L74 246L76 246C75.4549 244.365 75.6352 244.545 74 244z"/>
<path style="fill:#a162d3; stroke:none;" d="M254 244L254 249C254.83 246.969 254.83 246.031 254 244z"/>
<path style="fill:#fd86fa; stroke:none;" d="M368 244L368 246L370 246L370 244L368 244M410 244L410 246L412 246L412 244L410 244M34 245L34 247L36 247L36 245L34 245M121 245L121 247L123 247L123 245L121 245z"/>
<path style="fill:#a162d3; stroke:none;" d="M218.333 245.667C218.278 245.722 218.222 246.778 218.667 246.333C218.722 246.278 218.778 245.222 218.333 245.667M252 245L253 246L252 245z"/>
<path style="fill:#fd86fa; stroke:none;" d="M318 245L317 246L318 248L320 247C319.455 245.365 319.635 245.545 318 245M407 245C407.98 246.783 407.908 246.594 410 247C408.777 245.805 408.58 245.684 407 245z"/>
<path style="fill:#a162d3; stroke:none;" d="M249 246L249 248L251 248L251 246L249 246z"/>
<path style="fill:#fd86fa; stroke:none;" d="M37 247L37 249L39 249L39 247L37 247M404 247L403 251C404.769 250.157 405.688 249.459 407 248C405.521 247.014 405.797 247 404 247z"/>
<path style="fill:#a162d3; stroke:none;" d="M260 248L261 249L260 248M292 248C291.953 250.172 291.606 251.912 291 254C293.518 252.188 294.565 250.247 292 248z"/>
<path style="fill:#fd86fa; stroke:none;" d="M39 249C40.4638 250.968 41.6064 251.352 44 252C42.547 250.157 41.2648 249.741 39 249z"/>
<path style="fill:#a162d3; stroke:none;" d="M220 249C220.406 251.092 220.217 251.02 222 252C221.316 250.42 221.195 250.223 220 249M249 249L250 250L249 249M261 249C261.98 250.783 261.908 250.594 264 251C262.861 249.985 262.388 249.691 261 249M170 250L170 255C170.83 252.969 170.83 252.031 170 250M246 250L246 253L248 252C247.455 250.365 247.635 250.545 246 250z"/>
<path style="fill:#fd86fa; stroke:none;" d="M399 250L399 252L402 252L402 250L399 250M123 251C123.031 252.832 122.921 252.559 124 254C123.749 252.549 123.685 252.248 123 251M45 252L45 254L47 254L47 252L45 252z"/>
<path style="fill:#a162d3; stroke:none;" d="M233.667 252.333C233.222 252.778 234.278 252.722 234.333 252.667C234.778 252.222 233.722 252.278 233.667 252.333z"/>
<path style="fill:#fd86fa; stroke:none;" d="M316 252L316 254L318 254L318 252L316 252M397 252C397.545 253.635 397.365 253.455 399 254L399 252L397 252M48 253C49.4054 256.533 51.3874 257.193 55 258C53.2265 255.515 50.787 254.232 48 253z"/>
<path style="fill:#a162d3; stroke:none;" d="M163.333 253.667C163.278 253.722 163.222 254.778 163.667 254.333C163.722 254.278 163.778 253.222 163.333 253.667z"/>
<path style="fill:#fd86fa; stroke:none;" d="M393 253L392 257C394.035 255.774 394.326 255.297 395 253L393 253z"/>
<path style="fill:#a162d3; stroke:none;" d="M210 254L210 257L212 257L212 254L210 254M229 254C229.615 257.047 232.123 259.008 233 255C231.261 255.062 230.625 254.522 229 254z"/>
<path style="fill:#040306; stroke:none;" d="M231 254L231 256C232.635 255.455 232.455 255.635 233 254L231 254z"/>
<path style="fill:#a162d3; stroke:none;" d="M172 255C173.769 255.779 175.036 255.912 177 256C175.231 255.221 173.964 255.088 172 255M243 255L243 258C244.195 256.777 244.316 256.58 245 255L243 255M276 255C277.969 256.063 279.798 256.532 282 257C280.266 254.997 278.645 255.077 276 255M288 255L288 257C289.635 256.455 289.455 256.635 290 255L288 255M312 256C310.388 264.174 303.598 271.045 303 279L307 278C307.219 275.738 307.004 275.974 309 275L308 272C311.793 269.133 313.004 262.904 316 259C314.688 257.541 313.769 256.843 312 256z"/>
<path style="fill:#fd86fa; stroke:none;" d="M388 256C388.902 257.923 389.076 257.999 391 259C390.518 256.636 390.364 256.482 388 256M56 258C56.8993 260.124 56.8764 260.101 59 261C58.1007 258.876 58.1236 258.899 56 258M124 258C124.711 260.885 125.115 262.161 128 263C127.047 260.65 126.19 259.261 124 258z"/>
<path style="fill:#a162d3; stroke:none;" d="M225 258C226.506 258.683 227.315 258.826 229 259C227.494 258.317 226.685 258.174 225 258z"/>
<path style="fill:#fd86fa; stroke:none;" d="M381 263C384.209 261.966 386.228 260.893 388 258C384.821 258.743 382.621 260.144 381 263z"/>
<path style="fill:#a162d3; stroke:none;" d="M162 260L163 261L162 260M240 260L240 262C241.635 261.455 241.455 261.635 242 260L240 260M287.667 260.333C287.222 260.778 288.278 260.722 288.333 260.667C288.778 260.222 287.722 260.278 287.667 260.333z"/>
<path style="fill:#fd86fa; stroke:none;" d="M60 261L60 263L63 263L63 261L60 261z"/>
<path style="fill:#a162d3; stroke:none;" d="M161 261L162 262L161 261z"/>
<path style="fill:#fd86fa; stroke:none;" d="M313 261L313 263L315 263L315 261L313 261z"/>
<path style="fill:#a162d3; stroke:none;" d="M385 261L386 262L385 261M243 263C245.3 263.916 246.377 263.879 248 262L243 263M255 262C257.104 264.409 259.906 263.99 263 264C260.465 262.861 257.744 262.518 255 262M288 262L289 263L288 262z"/>
<path style="fill:#fd86fa; stroke:none;" d="M63.6667 263.333C63.2223 263.778 64.2778 263.722 64.3333 263.667C64.7778 263.222 63.7222 263.278 63.6667 263.333z"/>
<path style="fill:#a162d3; stroke:none;" d="M159 263L160 264L159 263M285 263C282.479 266.464 280.282 268.34 276 269C280.386 270.82 286.949 268.636 285 263z"/>
<path style="fill:#fd86fa; stroke:none;" d="M378.667 263.333C378.222 263.778 379.278 263.722 379.333 263.667C379.778 263.222 378.722 263.278 378.667 263.333z"/>
<path style="fill:#a162d3; stroke:none;" d="M226 264L225 269C226.879 267.377 226.916 266.3 226 264M263 264L264 265L263 264z"/>
<path style="fill:#fd86fa; stroke:none;" d="M127 265C127.684 266.58 127.805 266.777 129 268L129 265L127 265z"/>
<path style="fill:#a162d3; stroke:none;" d="M239 265L239 267L241 267L241 265L239 265z"/>
<path style="fill:#fd86fa; stroke:none;" d="M311 265L310 271C311.884 269.02 312.469 267.69 313 265L311 265z"/>
<path style="fill:#040306; stroke:none;" d="M237 266L237 268L239 268L239 266L237 266z"/>
<path style="fill:#a162d3; stroke:none;" d="M267 266C268.248 266.685 268.548 266.749 270 267C268.752 266.315 268.452 266.251 267 266M223 268L224 269L223 268M275 268L276 269L275 268z"/>
<path style="fill:#fd86fa; stroke:none;" d="M128 269C129.162 271.2 129.977 272.597 132 274C131.373 271.064 130.853 269.987 128 269z"/>
<path style="fill:#a162d3; stroke:none;" d="M156 269C160.217 270.769 165.459 270 170 270C165.783 268.231 160.541 269 156 269M235 269L236 270L235 269M311 270L312 271L311 270z"/>
<path style="fill:#fd86fa; stroke:none;" d="M308 272L308 274L310 274L310 272L308 272M132 275L132 277L134 277L134 275L132 275M306 277C307.58 276.316 307.777 276.195 309 275C306.908 275.406 306.98 275.217 306 277z"/>
<path style="fill:#a162d3; stroke:none;" d="M308 276L309 277L308 276z"/>
<path style="fill:#fd86fa; stroke:none;" d="M133 278C134.608 281.641 136.208 284.521 140 286C138.475 282.228 136.99 279.277 133 278z"/>
<path style="fill:#a162d3; stroke:none;" d="M305 280L306 281L305 280z"/>
<path style="fill:#fd86fa; stroke:none;" d="M299 288C301.554 286.727 302.743 285.566 304 283C301.079 284.103 300.103 285.079 299 288M140 288C141.565 290.862 143.06 292.562 146 294C144.546 291.034 142.966 289.454 140 288M288 300C292.669 297.738 297.18 293.927 299 289C293.978 291.257 290.257 294.978 288 300z"/>
<path style="fill:#a162d3; stroke:none;" d="M143 292L144 293L143 292z"/>
<path style="fill:#fd86fa; stroke:none;" d="M146 294C148.263 298.666 152.334 302.737 157 305C155.146 299.867 150.911 296.206 146 294z"/>
<path style="fill:#a162d3; stroke:none;" d="M321 296L322 300C319.143 301.356 316.658 303.266 314 305C313.421 310.502 305.326 318.098 300 319L299 323C297.365 322.455 297.545 322.635 297 321C296.015 323.332 296.019 325.457 296 328L299 326C302.076 332.297 308.742 335.756 312 342C307.327 344.689 304.413 349.911 299 351C299 354.184 298.478 357.866 299 361L301 362L300 363C304.183 362.789 307.879 363.738 312 364L311 366C313.784 365.942 316.291 365.648 319 365C321.578 368.029 326.202 368.692 330 368C330.769 371.589 332.863 370.834 336 370C337.848 372.052 339.345 371.576 342 371L342 374C345.828 373.744 349.18 374.818 353 374C353.769 377.589 355.863 376.834 359 376C360.734 378.003 362.355 377.923 365 378L364 380L370 379C372.6 381.974 375.724 380.17 379 379C379 376.168 380.158 370.526 377 370C377.133 367.378 377.1 366.554 375 365C375.834 361.863 376.589 359.769 373 359C373.576 356.345 374.052 354.848 372 353C372.133 350.378 372.1 349.554 370 348C370.576 345.345 371.052 343.848 369 342C369.276 338.736 368.598 336.837 367 334C368.572 332.217 368.126 330.399 368 328L365 329L366 325L364 325C364.648 322.291 364.942 319.784 365 317L362 318C362.742 315.316 363.14 313.878 361 312C361.878 304.397 357.875 301.364 351 300C349.414 303.43 347.746 305.244 344 306C343.111 309.814 340.478 312.946 336.515 310.013C330.909 305.866 327.387 299.142 321 296z"/>
<path style="fill:#fd86fa; stroke:none;" d="M323 296C326.416 302.844 339.493 318.392 345 307C336.35 310.101 330.844 302.731 326 296L323 296z"/>
<path style="fill:#a162d3; stroke:none;" d="M291 297L292 298L291 297z"/>
<path style="fill:#fd86fa; stroke:none;" d="M320 297C318.255 299.374 316.305 301.353 315 304C318.256 302.823 322.285 300.671 320 297M116 299C112.503 303.457 107.788 307.047 105 312C110.689 310.39 116.077 304.531 118 299L116 299z"/>
<path style="fill:#a162d3; stroke:none;" d="M104 314C99.7141 309.265 94.902 305.07 91 300C89.1501 300.202 87.8499 300.202 86 300C85.5982 301.944 85.5982 302.056 86 304L83 303C82.8741 305.399 82.4282 307.217 84 309C82.4923 311.953 82.307 313.756 83 317C81.3648 316.455 81.545 316.635 81 315C79.1851 319.829 76.9329 326.896 78 332C75.9966 333.734 76.077 335.355 76 338L74 337C74.0583 339.784 74.3521 342.291 75 345L72 345C72.2456 348.844 70.673 352.162 71 356C68.2656 356.475 68.0451 364.142 68 367L67 365C66.1892 367.239 66.4712 368.647 67 371C64.3988 373.273 65.0026 376.694 65 380L69 379C70.5556 380.813 71.4444 380.813 73 379C75.3772 379.572 77.558 379.891 80 380L79 377C81.4112 377.452 82.3486 377.773 84 376C87.1374 376.834 89.231 377.589 90 374C92.8897 374.664 94.9528 375.31 97 373C99.3772 373.572 101.558 373.891 104 374L103 371C105.887 371.528 107.375 371.306 110 370L109 372C111.852 371.155 113.364 370.982 114 368C118.711 369.006 120.888 366.865 125.289 366.014C127.768 365.535 130.489 365.957 133 366C132.35 364.7 132.853 365 131 365C133.4 364.197 135.372 363.907 137 362L143 363L144 357C127.478 363.387 109.213 366.766 92.1698 371.17C83.9071 373.305 75.6695 377.237 67 376C69.6799 368.563 71.9939 360.942 72 353L73 357C74.3995 353.883 74.4456 350.447 75.4198 347.17C78.0199 338.421 80.5391 329.679 82.8302 320.83C83.8225 316.998 84.2697 309.472 87.5988 306.797C92.7599 302.65 99.0985 314.541 103.335 316.008C108.167 317.682 116.03 306.587 118 303L120 303C123.048 309.653 128.803 314.927 134.086 319.885C136.015 321.694 140.129 323.523 140.863 326.249C142.134 330.966 132.386 335.938 130.358 339.627C127.426 344.959 139.85 353.989 144 356C142.846 351.86 139.578 349.492 136.667 346.449C135.361 345.084 133.09 343.263 133.367 341.127C134.294 333.999 145.748 331.435 147 324L143 325C138.16 315.092 124.231 310.118 122 299C116.222 299.156 112.966 306.622 108.667 310.167C106.219 312.185 104.418 310.549 104 314z"/>
<path style="fill:#fd86fa; stroke:none;" d="M285 303C287.124 302.101 287.101 302.124 288 300C285.876 300.899 285.899 300.876 285 303M92 301C94.4851 306.189 99.4725 309.505 103 314C104.109 308.469 96.4719 303.085 92 301M122 301C124.454 308.06 132.195 313.313 137.338 318.551C140.008 321.27 142.065 324.162 146 324C139.761 316.385 130.839 305.318 122 301M345 307C347.966 305.546 349.546 303.966 351 301C347.896 302.482 346.482 303.896 345 307M358 301L358 303L360 303L360 301L358 301M84 302L84 304L86 304C85.4549 302.365 85.6352 302.545 84 302z"/>
<path style="fill:#a162d3; stroke:none;" d="M153 302L154 303L153 302z"/>
<path style="fill:#fd86fa; stroke:none;" d="M300 325C303.385 329.268 307.561 332.753 311.369 336.63C312.685 337.969 314.904 339.751 314.633 341.873C313.758 348.716 303.501 351.784 302 359C309.948 359.628 317.355 362.525 325 364.58C333.944 366.985 342.92 368.708 351.729 371.692C356.753 373.394 368.583 378.57 373.677 376.218C377.909 374.265 372.314 361.474 371.416 358C366.755 339.98 363.557 320.039 356 303C352.128 305.792 348.747 308.918 345.504 312.419C344.126 313.906 342.575 316.072 340.257 315.713C333.901 314.728 330.194 301.379 323.248 302.816C320.629 303.358 318.187 307.345 316.37 309.151C311.025 314.466 306.142 320.591 300 325M118 303C115.564 306.099 108.528 316.252 104.112 315.629C98.936 314.899 93.7788 301.884 87.5988 306.198C86.0096 307.307 85.6013 309.871 84.99 311.579C83.241 316.467 81.8452 321.94 80.8796 327.039C77.7272 343.685 70.881 359.538 67 376C75.3131 377.808 84.2383 373.711 92.1698 371.417C102.423 368.451 112.705 365.785 123.09 363.17C129.959 361.44 137.72 360.332 144 357C140.704 353.064 136.67 349.845 133.19 346.076C131.994 344.781 130.129 343.094 130.368 341.13C131.059 335.445 142.785 332.505 141.353 326.249C140.667 323.257 136.15 320.982 134.086 318.985C128.863 313.932 124 309.081 120 303L118 303M283 303L283 305L285 305L285 303L283 303M280 304C278.605 306.038 277.651 307.627 277 310C279.919 308.557 281.109 307.126 282 304L280 304M158 305C159.226 306.922 160.373 308.412 162 310C161.858 306.853 160.933 306.117 158 305M360.333 305.667C360.278 305.722 360.222 306.778 360.667 306.333C360.722 306.278 360.778 305.222 360.333 305.667M301 320C306.532 317.319 312.057 311.359 315 306C309.198 308.706 303.706 314.198 301 320z"/>
<path style="fill:#a162d3; stroke:none;" d="M108 307L109 308L108 307z"/>
<path style="fill:#fd86fa; stroke:none;" d="M361 307L362 308L361 307z"/>
<path style="fill:#a162d3; stroke:none;" d="M107 308L108 309L107 308z"/>
<path style="fill:#fd86fa; stroke:none;" d="M82 309L82 311L84 311L84 309L82 309M165 309C165.776 311.132 166.13 311.771 168 313C167.224 310.868 166.87 310.229 165 309M274 309L272 313C274.249 311.846 274.846 311.249 276 309L274 309M361 310L361 312L363 312L363 310L361 310z"/>
<path style="fill:#a162d3; stroke:none;" d="M134 312L135 313L134 312z"/>
<path style="fill:#fd86fa; stroke:none;" d="M169 312C170.382 314.42 171.363 315.061 174 316C172.739 313.81 171.35 312.953 169 312M269 312L269 315C270.195 313.777 270.316 313.58 271 312L269 312M81 314C81.4057 316.092 81.2167 316.02 83 317C82.3164 315.42 82.1952 315.223 81 314M266 314L266 316L268 316L268 314L266 314z"/>
<path style="fill:#a162d3; stroke:none;" d="M137 315L138 316L137 315z"/>
<path style="fill:#fd86fa; stroke:none;" d="M263 315C261.87 316.4 260.782 317.416 260 319C262.885 318.289 264.161 317.885 265 315L263 315M175.667 316.333C175.222 316.778 176.278 316.722 176.333 316.667C176.778 316.222 175.722 316.278 175.667 316.333M363 316L362 318L364 318C364 316.147 364.3 316.65 363 316M178 319C180.092 318.594 180.02 318.783 181 317C179.42 317.684 179.223 317.805 178 319M183 318L183 321L185 321L185 318L183 318M255 318L255 321L257 321L257 318L255 318M79 319L79 322L81 322L81 319L79 319M298 319L297 323C299.035 321.774 299.326 321.297 300 319L298 319M188 320L188 322L190 322L190 320L188 320M250 320L250 322L253 322L253 320L250 320z"/>
<path style="fill:#a162d3; stroke:none;" d="M144 322L145 323L144 322z"/>
<path style="fill:#fd86fa; stroke:none;" d="M192 322C193.223 323.195 193.42 323.316 195 324C194.02 322.217 194.092 322.406 192 322M246 322L246 324L248 324L248 322L246 322M200 323L200 325L202 325L202 323L200 323M238 323L238 325L240 325L240 323L238 323M364 323L364 325L366 325L366 323L364 323M78.3333 326.667C78.2778 326.722 78.2222 327.778 78.6667 327.333C78.7222 327.278 78.7778 326.222 78.3333 326.667M297 326C299.395 333.027 307.156 335.857 309 343C310.797 343 310.521 342.986 312 342C309.879 335.896 302.672 329.021 297 326M365 327L365 329L367 329L367 327L365 327M144 353C142.297 349.349 137.357 346.003 136.755 342.09C136.057 337.545 145.07 332.03 147 328C142.992 329.393 132.192 336.881 132.792 341.873C133.312 346.205 140.421 351.292 144 353M76 330L76 332L78 332L78 330L76 330z"/>
<path style="fill:#a162d3; stroke:none;" d="M303 334L304 335L303 334z"/>
<path style="fill:#fd86fa; stroke:none;" d="M367 334L367 336L369 336L369 334L367 334M74 336C74.5451 337.635 74.3648 337.455 76 338L76 336L74 336z"/>
<path style="fill:#a162d3; stroke:none;" d="M306 337L307 338L306 337z"/>
<path style="fill:#fd86fa; stroke:none;" d="M369 340L369 342L371 342L371 340L369 340M73 342L72 345C74.5655 344.449 74.8602 343.86 73 342M306 346C308.124 345.101 308.101 345.124 309 343C306.876 343.899 306.899 343.876 306 346M300 352C302.966 350.546 304.546 348.966 306 346C302.896 347.482 301.482 348.896 300 352M370 346L370 348L372 348L372 346L370 346M71 347L71 350L73 350L73 347L71 347z"/>
<path style="fill:#a162d3; stroke:none;" d="M203 349L203 353L239 353C239 357.997 238.91 363.003 239.005 367.999C239.042 369.981 238.864 372.594 240.603 373.972C242.281 375.301 245.008 374.986 247 374.999C251.776 375.032 256.292 375.126 261 376C256.615 380.796 254.204 387.003 250.951 392.565C245.766 401.427 239.937 409.792 235.294 419C233.001 423.548 230.195 427.727 227.576 432.084C226.397 434.044 225.039 436.977 222.755 437.864C217.623 439.86 213.391 427.71 211.456 424.41C205.383 414.051 199.661 403.45 193.501 393.171C189.946 387.24 185.716 381.835 184 375L204 375C204 374.461 204.357 371.297 204 371C199.004 366.837 183.359 371.59 181 371C181.004 375.877 180.677 380.925 185 384L184 388L187 387L190 393C188.4 394.062 188.719 393.884 189 396L193 396L192 399C193.996 399.974 193.781 399.738 194 402C194.948 403.83 195.008 404.89 195 407L198 406L199 407L198 411L201 410L200 413C200.859 414.353 200.823 414.355 201 416L204 415L203 418C203.859 419.353 203.823 419.355 204 421C205.996 421.974 205.781 421.738 206 424C210.248 426.319 210.368 431.183 215 433C214.455 434.635 214.635 434.455 213 435C214.845 436.831 215.273 437.366 215 440C218.957 441.864 221.456 443.852 226 444L226 438L230 438C230.177 436.355 230.141 436.353 231 435L230 432L234 430C234.219 427.738 234.004 427.974 236 427L235 424L241 419L239 416L242 416C242.219 413.738 242.004 413.974 244 413L244 408C245.686 408.218 246.316 408.224 248 408C246.487 406.908 246.27 407.09 246 405L250 404C248.672 403.727 248.423 403.784 247 404L253 398C252.963 394.053 254.559 391.855 258 390C258.177 388.355 258.141 388.353 259 387C259.101 384.095 259.476 383.435 262 382L261 379L264 380L264 373L261 374L262 371C255.59 369.105 247.482 369.457 241 371C242.695 363.879 242 356.283 242 349C237.569 349 230.088 347.466 227 351C222.19 349.855 217.81 349.855 213 351C210.569 348.218 206.509 349 203 349z"/>
<path style="fill:#fd86fa; stroke:none;" d="M213 349L213 351L215 351L215 349L213 349M225 349L225 351L227 351L227 349L225 349M372 351L372 353L374 353L374 351L372 351z"/>
<path style="fill:#040306; stroke:none;" d="M72 353L72 357C72.7102 355.241 72.7102 354.759 72 353z"/>
<path style="fill:#fd86fa; stroke:none;" d="M203 353C203 358.748 203.874 364.833 201 370C202.733 371.757 203.341 372.642 204 375L184 375C185.044 382.29 189.906 387.913 193.501 394.089C199.527 404.442 205.36 414.922 211.456 425.246C213.535 428.768 217.257 440.163 222.755 438.353C225.077 437.588 226.41 434.864 227.576 432.92C230.182 428.572 233.001 424.401 235.294 419.87C242.81 405.02 251.615 389.769 261 376C255.43 374.674 246.011 377.104 241.318 373.972C236.692 370.885 239 357.919 239 353L203 353M69 354C69.5451 355.635 69.3649 355.455 71 356L71 354L69 354M373 357C373.98 358.783 373.908 358.594 376 359C374.777 357.805 374.58 357.684 373 357M68 358L68 361L70 361L70 358L68 358M142 361C142.545 362.635 142.365 362.455 144 363L144 361L142 361M299.667 361.333C299.222 361.778 300.278 361.722 300.333 361.667C300.778 361.222 299.722 361.278 299.667 361.333M137 362L137 364L139 364L139 362L137 362M304 362L304 364L307 364L307 362L304 362M375 363L375 365L377 365L377 363L375 363M67 364L67 367C67.6961 365.446 67.6961 365.554 67 364M131.667 364.333C131.222 364.778 132.278 364.722 132.333 364.667C132.778 364.222 131.722 364.278 131.667 364.333M310.667 364.333C310.222 364.778 311.278 364.722 311.333 364.667C311.778 364.222 310.722 364.278 310.667 364.333M124 365L124 367L127 367L127 365L124 365M317 365L317 367L319 367L319 365L317 365M120 367L120 369L122 369L122 367L120 367M323 367L323 369L325 369L325 367L323 367M114 368L114 370L116 370L116 368L114 368M327 370C329.092 369.594 329.02 369.783 330 368C328.42 368.684 328.223 368.805 327 370M377 368L377 370C378.635 369.455 378.455 369.635 379 368L377 368M65 369L65 371L67 371L67 369L65 369M241 369L241 371L243 371L243 369L241 369M108 370L108 372C109.635 371.455 109.455 371.635 110 370L108 370M182.333 370.667C182.278 370.722 182.222 371.778 182.667 371.333C182.722 371.278 182.778 370.222 182.333 370.667M334 370L334 372L336 372L336 370L334 370M103 371C103.684 372.58 103.805 372.777 105 374L105 371L103 371M340 371C340.684 372.58 340.805 372.777 342 374L342 371L340 371M261 372L261 374L263 374L263 372L261 372M97 373L97 375L99 375L99 373L97 373M344 373C345.223 374.195 345.42 374.316 347 375C346.02 373.217 346.092 373.406 344 373M90 374L90 377C91.7968 377 91.5215 376.986 93 376C91.7772 374.805 91.58 374.684 90 374M351 374L351 377L353 377L353 374L351 374M84 376L84 378L86 378L86 376L84 376M357 376L357 378L359 378L359 376L357 376M79 377C79.8993 379.124 79.8764 379.101 82 380C81.1007 377.876 81.1236 377.899 79 377M363.667 378.333C363.222 378.778 364.278 378.722 364.333 378.667C364.778 378.222 363.722 378.278 363.667 378.333M66 381C68.0924 380.594 68.0198 380.783 69 379C67.42 379.684 67.2228 379.805 66 381M73 379C73.9802 380.783 73.9076 380.594 76 381C74.7772 379.805 74.58 379.684 73 379M261 379C261.98 380.783 261.908 380.594 264 381C262.777 379.805 262.58 379.684 261 379M368 379L368 381L370 381L370 379L368 379M376 381C377.58 380.316 377.777 380.195 379 379C376.908 379.406 376.98 379.217 376 381M181 380C181.684 381.58 181.805 381.777 183 383C182.316 381.42 182.195 381.223 181 380M258 386C260.249 384.846 260.846 384.249 262 382C259.374 382.839 258.839 383.374 258 386M183 384L183 386L185 386L185 384L183 384M185 387C186.174 389.966 187.204 391.465 190 393C188.803 390.203 187.648 388.504 185 387M257 387L257 389L259 389L259 387L257 387M255 390L254 394C255.87 392.771 256.224 392.132 257 390L255 390M252 394L252 397L254 397L254 394L252 394M189 396C190.458 397.081 191.248 397.436 193 398C191.666 396.098 191.337 396.034 189 396M251 398L251 400C252.635 399.455 252.455 399.635 253 398L251 398M192 399L192 401L195 401L195 399L192 399z"/>
<path style="fill:#a162d3; stroke:none;" d="M252 399L253 400L252 399z"/>
<path style="fill:#fd86fa; stroke:none;" d="M247 404C249.132 403.224 249.771 402.87 251 401C248.868 401.776 248.229 402.13 247 404M194 402L194 404L196 404L196 402L194 402M246 405L246 408C247.195 406.777 247.316 406.58 248 405L246 405M196 406C196.899 408.124 196.876 408.101 199 409C198.101 406.876 198.124 406.899 196 406M244 408L243 412C244.949 411.064 245.55 410.608 247 409C245.521 408.014 245.797 408 244 408M198 412C200.092 411.594 200.02 411.783 201 410C199.42 410.684 199.223 410.805 198 412M200 413L200 415L202 415L202 413L200 413M241 413C241.684 414.58 241.805 414.777 243 416L243 413L241 413M202 415L202 417L204 417L204 415L202 415M239 416L239 418L242 418L242 416L239 416M203 418L203 420L205 420L205 418L203 418M238 419L237 423C238.87 421.771 239.224 421.132 240 419L238 419M205 421L205 423L207 423L207 421L205 421z"/>
<path style="fill:#a162d3; stroke:none;" d="M239 421L240 422L239 421z"/>
<path style="fill:#fd86fa; stroke:none;" d="M206 424C207.232 426.787 208.515 429.227 211 431C210.205 427.393 209.643 425.196 206 424M235 424L235 426L237 426L237 424L235 424M233 427C233 428.797 233.014 428.521 234 430C235.195 428.777 235.316 428.58 236 427L233 427M232 430L230 434C232.626 433.161 233.161 432.626 234 430L232 430M211 432C212.226 434.035 212.703 434.326 215 435C213.771 433.13 213.132 432.776 211 432M229 435L229 437L231 437L231 435L229 435M214 436L214 439L216 439L216 436L214 436M226 438L226 442C227.87 440.771 228.224 440.132 229 438L226 438M215 440C216.45 441.608 217.051 442.064 219 443C217.774 440.965 217.297 440.674 215 440M219 443L220 444L219 443z"/>
</svg>
