<!DOCTYPE svg PUBLIC "-//W3C//DTD SVG 20010904//EN" "http://www.w3.org/TR/2001/REC-SVG-20010904/DTD/svg10.dtd">
<svg version="1.0" xmlns="http://www.w3.org/2000/svg" width="709px" height="397px" viewBox="0 0 7090 3970" preserveAspectRatio="xMidYMid meet">
<g id="layer101" fill="#040404" stroke="none">
<path d="M0 1985 l0 -1985 3545 0 3545 0 0 1985 0 1985 -3545 0 -3545 0 0 -1985z"/>
</g>
<g id="layer102" fill="#313131" stroke="none">
<path d="M0 1985 l0 -1985 3545 0 3545 0 0 1985 0 1985 -3545 0 -3545 0 0 -1985z m5480 1607 c0 -13 -1431 -1513 -1440 -1510 -5 2 -160 160 -345 351 l-337 348 63 67 c35 37 208 217 384 401 176 183 322 337 323 342 4 11 1352 12 1352 1z m-2623 -2542 l122 -125 -380 -400 c-209 -220 -383 -403 -387 -407 -10 -10 -1356 -15 -1360 -5 -2 4 319 349 713 767 l717 759 226 -232 c125 -128 282 -288 349 -357z"/>
<path d="M3786 3149 l-348 -371 33 -36 c71 -78 564 -572 571 -572 6 0 295 304 931 977 53 55 56 61 33 59 -14 -2 -23 1 -20 6 6 9 -106 124 -119 120 -4 -1 -6 1 -6 5 3 21 -3 32 -22 38 -11 4 -18 9 -15 12 6 6 -25 40 -32 35 -3 -2 -10 7 -16 19 -6 12 -15 21 -21 21 -5 -1 -15 9 -22 22 -11 22 -19 23 -164 29 -84 4 -216 7 -293 7 l-141 -1 -349 -370z"/>
<path d="M1645 842 l-649 -687 389 -3 c215 -2 477 0 582 3 l193 7 292 307 c161 168 325 340 366 382 l73 76 -292 302 c-160 165 -294 301 -298 300 -3 0 -298 -309 -656 -687z"/>
</g>
<g id="layer103" fill="#515151" stroke="none">
<path d="M0 1985 l0 -1985 3545 0 3545 0 0 1985 0 1985 -3545 0 -3545 0 0 -1985z m5480 1606 c0 -6 -318 -344 -706 -753 -389 -409 -712 -749 -719 -756 -9 -10 -80 58 -351 339 -186 193 -339 356 -339 361 0 6 173 192 385 414 l385 403 673 1 c412 0 672 -4 672 -9z m-2578 -2585 l78 -79 -42 -46 c-23 -25 -200 -211 -392 -414 l-349 -367 -685 0 -685 0 59 63 c33 34 360 381 728 770 l668 708 271 -278 c149 -153 306 -314 349 -357z"/>
<path d="M3791 3149 l-350 -372 258 -266 c143 -146 278 -284 301 -306 l42 -40 86 91 c558 590 668 708 683 730 l17 27 -56 57 c-32 32 -64 68 -72 79 -8 12 -20 21 -27 21 -7 0 -13 7 -13 15 0 8 -11 22 -25 31 -14 9 -25 23 -25 31 0 8 -4 11 -10 8 -5 -3 -15 4 -21 17 -6 13 -30 38 -55 56 -24 18 -44 39 -44 47 0 8 -4 15 -10 15 -10 0 -41 29 -83 80 -31 37 -74 48 -189 49 l-57 1 -350 -371z"/>
<path d="M1649 843 l-651 -688 58 -3 c33 -2 294 -1 581 3 l522 7 358 376 c197 206 358 381 358 389 0 11 -561 603 -571 603 -2 0 -296 -309 -655 -687z"/>
</g>
<g id="layer104" fill="#0a0df4" stroke="none">
<path d="M0 1985 l0 -1985 3545 0 3545 0 0 1985 0 1985 -3545 0 -3545 0 0 -1985z m5480 1605 c0 -8 -1065 -1136 -1405 -1488 l-32 -33 -339 351 c-186 193 -340 355 -342 360 -2 4 172 191 385 414 l388 406 673 0 c458 0 672 -3 672 -10z m-3085 -2059 c54 -58 209 -217 343 -353 220 -224 242 -249 230 -266 -7 -10 -183 -197 -392 -415 l-378 -397 -685 0 -685 0 74 80 c275 299 1375 1459 1383 1458 6 0 55 -48 110 -107z"/>
</g>
<g id="layer105" fill="#1c2ff1" stroke="none">
<path d="M0 1985 l0 -1985 3545 0 3545 0 0 1985 0 1985 -3545 0 -3545 0 0 -1985z m2262 1558 c35 -37 101 -108 147 -158 46 -49 105 -112 130 -139 25 -27 40 -46 32 -41 -9 5 -12 3 -9 -6 3 -8 12 -13 19 -11 8 1 2 -8 -13 -21 -32 -26 -41 -60 -10 -36 15 13 16 12 3 -3 -7 -10 -20 -18 -28 -18 -11 0 -11 -4 -3 -20 6 -11 8 -21 5 -21 -3 -1 -8 -2 -13 -3 -18 -3 -39 -32 -34 -48 2 -11 -3 -20 -12 -24 -10 -4 -26 -26 -38 -50 -11 -24 -24 -44 -29 -44 -5 0 -9 -9 -9 -20 0 -11 -4 -20 -9 -20 -5 0 -16 -16 -25 -35 -9 -19 -22 -40 -29 -47 -24 -26 -47 -68 -47 -88 0 -11 -4 -20 -9 -20 -11 0 -41 -56 -41 -77 0 -7 -6 -13 -13 -13 -7 0 -21 -16 -31 -35 -11 -19 -23 -35 -28 -35 -4 0 -8 -9 -8 -19 0 -10 -7 -22 -16 -25 -8 -3 -12 -10 -9 -16 11 -18 -6 -50 -26 -50 -11 0 -17 5 -14 10 3 6 1 10 -4 10 -6 0 -11 -3 -12 -7 0 -5 -2 -17 -4 -28 -2 -11 1 -23 8 -27 9 -6 9 -8 0 -8 -7 0 -17 8 -22 18 -10 16 -10 16 -11 0 0 -10 -5 -18 -11 -18 -5 0 -7 -5 -4 -10 4 -6 11 -7 17 -4 7 4 8 2 4 -5 -5 -8 -16 -5 -36 11 -15 13 -272 282 -570 598 -298 316 -563 596 -588 623 l-46 47 691 0 691 0 64 -67z m3218 47 c0 -8 -1065 -1136 -1405 -1488 l-32 -33 -339 351 c-186 193 -340 355 -342 360 -2 4 172 191 385 414 l388 406 673 0 c458 0 672 -3 672 -10z m-3375 -1208 c-3 -3 -11 0 -18 7 -9 10 -8 11 6 5 10 -3 15 -9 12 -12z m290 -851 c54 -58 209 -217 343 -353 220 -224 242 -249 230 -266 -7 -10 -183 -197 -392 -415 l-378 -397 -685 0 -685 0 74 80 c275 299 1375 1459 1383 1458 6 0 55 -48 110 -107z"/>
<path d="M2505 3120 c-3 -6 1 -7 9 -4 18 7 21 14 7 14 -6 0 -13 -4 -16 -10z"/>
<path d="M2505 3090 c3 -5 8 -10 11 -10 3 0 2 5 -1 10 -3 6 -8 10 -11 10 -3 0 -2 -4 1 -10z"/>
<path d="M2010 2370 c0 -5 5 -10 11 -10 5 0 7 5 4 10 -3 6 -8 10 -11 10 -2 0 -4 -4 -4 -10z"/>
</g>
<g id="layer106" fill="#0b50e6" stroke="none">
<path d="M0 1985 l0 -1985 3545 0 3545 0 0 1985 0 1985 -3545 0 -3545 0 0 -1985z m2212 1616 c2 -5 219 -239 483 -520 264 -282 482 -517 484 -523 2 -7 -1 -8 -9 -3 -10 6 -12 4 -7 -8 5 -13 2 -15 -16 -8 -20 8 -22 6 -23 -30 0 -22 4 -39 10 -39 5 0 6 -3 3 -6 -4 -4 -23 6 -43 21 -28 22 -38 25 -47 15 -9 -10 -9 -11 2 -5 9 5 12 4 7 -3 -4 -6 -13 -9 -21 -5 -10 3 -15 -1 -15 -14 0 -11 -9 -28 -20 -38 -11 -10 -20 -26 -20 -36 0 -9 -3 -19 -7 -21 -13 -5 -63 -87 -63 -102 0 -9 -8 -20 -18 -25 -17 -9 -78 -111 -65 -111 3 0 -1 -8 -10 -17 -8 -10 -17 -22 -19 -28 -2 -5 -6 -9 -10 -7 -5 1 -8 -4 -8 -12 0 -8 -3 -16 -7 -18 -5 -1 -20 -29 -36 -61 -15 -32 -34 -60 -42 -63 -8 -4 -15 -14 -15 -24 0 -10 -7 -23 -15 -30 -16 -13 -17 -68 -1 -77 5 -4 6 0 1 8 -4 8 1 5 12 -6 11 -11 16 -22 11 -23 -4 -2 -6 -8 -2 -13 3 -5 -7 -9 -21 -9 -15 0 -24 -4 -20 -10 3 -5 1 -10 -5 -10 -6 0 -9 -4 -6 -9 3 -4 -2 -8 -12 -7 -23 2 -174 159 -1007 1041 -384 407 -721 764 -749 793 l-50 52 696 0 c396 0 698 -4 700 -9z m3268 -11 c0 -8 -1065 -1136 -1405 -1488 l-32 -33 -339 351 c-186 193 -340 355 -342 360 -2 4 172 191 385 414 l388 406 673 0 c458 0 672 -3 672 -10z m-2310 -1074 c0 -2 -7 -7 -16 -10 -8 -3 -12 -2 -9 4 6 10 25 14 25 6z m-15 -36 c3 -5 4 -10 1 -10 -3 0 -8 5 -11 10 -3 6 -4 10 -1 10 3 0 8 -4 11 -10z m-518 -777 c-4 -3 -10 -3 -14 0 -3 4 0 7 7 7 7 0 10 -3 7 -7z m-242 -172 c54 -58 209 -217 343 -353 220 -224 242 -249 230 -266 -7 -10 -183 -197 -392 -415 l-378 -397 -685 0 -685 0 74 80 c275 299 1375 1459 1383 1458 6 0 55 -48 110 -107z"/>
<path d="M3141 2564 c0 -11 3 -14 6 -6 3 7 2 16 -1 19 -3 4 -6 -2 -5 -13z"/>
<path d="M3105 2490 c3 -5 8 -10 11 -10 3 0 2 5 -1 10 -3 6 -8 10 -11 10 -3 0 -2 -4 1 -10z"/>
</g>
<g id="layer107" fill="#0d5ee0" stroke="none">
<path d="M0 1985 l0 -1985 3545 0 3545 0 0 1985 0 1985 -3545 0 -3545 0 0 -1985z m2258 1563 c76 -81 1273 -1359 1331 -1422 45 -49 47 -56 13 -59 -16 -1 -19 -5 -11 -18 12 -23 11 -39 -2 -39 -5 0 -8 4 -4 9 3 5 1 13 -5 16 -6 4 -10 3 -9 -2 5 -27 -3 -54 -13 -50 -7 2 -12 10 -10 16 1 6 -2 11 -7 11 -7 0 -348 357 -468 490 -11 12 -15 12 -25 1 -11 -11 -10 -12 1 -6 9 5 12 4 7 -3 -4 -6 -13 -9 -21 -5 -10 3 -15 -1 -15 -14 0 -11 -9 -28 -20 -38 -11 -10 -20 -26 -20 -36 0 -9 -3 -19 -7 -21 -13 -5 -63 -87 -63 -102 0 -9 -8 -20 -18 -25 -17 -9 -78 -111 -65 -111 3 0 -1 -8 -10 -17 -8 -10 -17 -22 -19 -28 -2 -5 -6 -9 -10 -7 -5 1 -8 -4 -8 -12 0 -8 -3 -16 -7 -18 -5 -1 -20 -29 -36 -61 -15 -32 -34 -60 -42 -63 -8 -4 -15 -14 -15 -24 0 -10 -7 -23 -15 -30 -8 -7 -15 -20 -15 -29 0 -10 111 -133 246 -274 164 -173 247 -266 250 -285 3 -14 2 -23 -2 -19 -4 4 -13 2 -21 -5 -10 -8 -17 -7 -29 8 -15 17 -15 17 -1 -7 20 -33 19 -73 0 -57 -7 6 -13 16 -13 22 0 6 5 4 11 -4 9 -13 10 -13 6 0 -2 8 -12 15 -21 15 -19 0 -110 95 -1375 1432 -431 455 -807 852 -835 881 l-50 52 691 0 691 0 60 -62z m3222 42 c0 -8 -1065 -1136 -1405 -1488 l-32 -33 -339 351 c-186 193 -340 355 -342 360 -2 4 172 191 385 414 l388 406 673 0 c458 0 672 -3 672 -10z m-1850 -1536 c0 -8 -19 -13 -24 -6 -3 5 1 9 9 9 8 0 15 -2 15 -3z m-1235 -523 c54 -58 209 -217 343 -353 220 -224 242 -249 230 -266 -7 -10 -183 -197 -392 -415 l-378 -397 -685 0 -685 0 74 80 c275 299 1375 1459 1383 1458 6 0 55 -48 110 -107z"/>
<path d="M3113 1300 c-1 -11 2 -20 7 -20 4 0 7 7 6 15 -3 23 -12 26 -13 5z"/>
</g>
<g id="layer108" fill="#717171" stroke="none">
<path d="M0 1985 l0 -1985 3545 0 3545 0 0 1985 0 1985 -3545 0 -3545 0 0 -1985z m2258 1563 c32 -35 337 -360 677 -723 341 -363 681 -726 757 -807 76 -81 138 -154 138 -163 0 -9 -5 -13 -10 -10 -6 4 -7 11 -4 17 4 6 2 8 -3 5 -6 -4 -8 -19 -5 -33 3 -15 1 -25 -4 -22 -11 7 -35 -17 -27 -26 4 -3 -1 -6 -11 -6 -9 0 -27 10 -40 23 -18 17 -620 660 -657 702 -6 5 -14 4 -21 -4 -11 -11 -10 -12 1 -6 9 5 12 4 7 -3 -4 -6 -13 -9 -21 -5 -10 3 -15 -1 -15 -14 0 -11 -9 -28 -20 -38 -11 -10 -20 -26 -20 -36 0 -9 -3 -19 -7 -21 -13 -5 -63 -87 -63 -102 0 -9 -8 -20 -18 -25 -17 -9 -78 -111 -65 -111 3 0 -1 -8 -10 -17 -8 -10 -17 -22 -19 -28 -2 -5 -6 -9 -10 -7 -5 1 -8 -4 -8 -12 0 -8 -3 -16 -7 -18 -5 -1 -20 -29 -36 -61 -15 -32 -34 -60 -42 -63 -8 -4 -15 -14 -15 -24 0 -10 -7 -23 -15 -30 -8 -7 -15 -20 -15 -29 0 -9 160 -185 355 -389 195 -205 355 -375 355 -378 0 -3 -4 -2 -10 1 -5 3 -10 2 -10 -4 0 -6 -6 -9 -12 -7 -7 1 -10 1 -5 -2 4 -2 12 -13 19 -25 10 -19 9 -20 -4 -9 -11 9 -18 10 -23 2 -3 -6 -11 -8 -16 -5 -5 3 -6 -1 -3 -10 5 -12 9 -13 20 -4 10 8 14 8 14 0 0 -6 -5 -11 -11 -11 -8 0 -8 -4 0 -14 8 -10 9 -16 1 -21 -6 -4 -9 -3 -8 2 2 4 -30 40 -69 78 -75 72 -225 230 -1545 1625 -430 454 -804 849 -832 878 l-50 52 691 0 691 0 60 -62z m3222 42 c0 -8 -1065 -1136 -1405 -1488 l-32 -33 -339 351 c-186 193 -340 355 -342 360 -2 4 172 191 385 414 l388 406 673 0 c458 0 672 -3 672 -10z m-1685 -1848 c-3 -3 -11 0 -18 7 -9 10 -8 11 6 5 10 -3 15 -9 12 -12z m-1400 -211 c54 -58 209 -217 343 -353 220 -224 242 -249 230 -266 -7 -10 -183 -197 -392 -415 l-378 -397 -685 0 -685 0 74 80 c275 299 1375 1459 1383 1458 6 0 55 -48 110 -107z"/>
<path d="M3893 3253 c-104 -109 -248 -261 -320 -337 l-131 -140 296 -303 c163 -167 300 -302 304 -301 8 3 489 509 580 611 39 43 54 67 44 67 -9 0 -16 4 -16 8 0 9 -49 62 -201 218 -49 51 -89 97 -89 103 0 10 -14 15 -32 12 -5 0 -8 3 -8 9 0 5 -21 32 -47 59 -76 77 -117 125 -115 134 1 4 -3 7 -8 7 -6 0 -21 11 -34 25 -13 14 -26 25 -29 25 -3 0 -90 -89 -194 -197z"/>
<path d="M1794 994 c-722 -762 -793 -838 -791 -840 1 -1 261 0 578 3 l577 6 353 370 c195 204 358 376 362 384 6 10 -39 63 -160 189 -92 96 -222 231 -288 300 l-120 126 -511 -538z"/>
</g>
<g id="layer109" fill="#0d6be2" stroke="none">
<path d="M0 1985 l0 -1985 3545 0 3545 0 0 1985 0 1985 -3545 0 -3545 0 0 -1985z m2258 1563 c32 -35 337 -360 677 -723 341 -363 681 -726 757 -807 76 -81 138 -154 138 -163 0 -9 -5 -13 -10 -10 -6 4 -7 11 -4 17 4 6 2 8 -3 5 -6 -4 -8 -19 -5 -33 3 -15 1 -25 -4 -22 -11 7 -35 -17 -27 -26 4 -3 -1 -6 -11 -6 -9 0 -27 10 -40 23 -18 17 -620 660 -657 702 -6 5 -14 4 -21 -4 -11 -11 -10 -12 1 -6 9 5 12 4 7 -3 -4 -6 -13 -9 -21 -5 -10 3 -15 -1 -15 -14 0 -11 -9 -28 -20 -38 -11 -10 -20 -26 -20 -36 0 -9 -3 -19 -7 -21 -13 -5 -63 -87 -63 -102 0 -9 -8 -20 -18 -25 -17 -9 -78 -111 -65 -111 3 0 -1 -8 -10 -17 -8 -10 -17 -22 -19 -28 -2 -5 -6 -9 -10 -7 -5 1 -8 -4 -8 -12 0 -8 -3 -16 -7 -18 -5 -1 -20 -29 -36 -61 -15 -32 -34 -60 -42 -63 -8 -4 -15 -14 -15 -24 0 -10 -7 -23 -15 -30 -8 -7 -15 -20 -15 -29 0 -9 160 -185 355 -389 195 -205 355 -375 355 -378 0 -3 -4 -2 -10 1 -5 3 -10 2 -10 -4 0 -6 -6 -9 -12 -7 -7 1 -10 1 -5 -2 4 -2 12 -13 19 -25 10 -19 9 -20 -4 -9 -11 9 -18 10 -23 2 -3 -6 -11 -8 -16 -5 -5 3 -6 -1 -3 -10 5 -12 9 -13 20 -4 10 8 14 8 14 0 0 -6 -5 -11 -11 -11 -8 0 -8 -4 0 -14 8 -10 9 -16 1 -21 -6 -4 -9 -3 -8 2 2 4 -30 40 -69 78 -75 72 -225 230 -1545 1625 -430 454 -804 849 -832 878 l-50 52 691 0 691 0 60 -62z m2564 52 c555 0 659 -2 656 -14 -2 -10 -664 -711 -1378 -1460 l-56 -58 -338 348 c-186 192 -340 355 -343 361 -3 7 150 174 339 371 188 197 363 381 388 409 25 28 51 49 58 47 8 -2 311 -4 674 -4z m-1027 -1858 c-3 -3 -11 0 -18 7 -9 10 -8 11 6 5 10 -3 15 -9 12 -12z m-1387 -224 c64 -68 218 -227 344 -353 125 -127 228 -234 228 -238 0 -4 -176 -192 -391 -417 l-390 -410 -686 0 -685 0 58 65 c157 173 1390 1474 1398 1475 5 0 61 -55 124 -122z"/>
</g>
<g id="layer110" fill="#0e79de" stroke="none">
<path d="M0 1985 l0 -1985 3545 0 3545 0 0 1985 0 1985 -3545 0 -3545 0 0 -1985z m2258 1563 c159 -169 1750 -1868 1767 -1889 20 -24 23 -75 4 -93 -5 -6 -9 -18 -9 -27 0 -9 -7 -20 -16 -23 -8 -3 -12 -2 -9 4 3 6 2 10 -4 10 -7 0 -693 725 -917 970 -12 12 -16 12 -26 1 -11 -11 -10 -12 1 -6 9 5 12 4 7 -3 -4 -6 -13 -9 -21 -5 -10 3 -15 -1 -15 -14 0 -11 -9 -28 -20 -38 -11 -10 -20 -26 -20 -36 0 -9 -3 -19 -7 -21 -13 -5 -63 -87 -63 -102 0 -9 -8 -20 -18 -25 -17 -9 -78 -111 -65 -111 3 0 -1 -8 -10 -17 -8 -10 -17 -22 -19 -28 -2 -5 -6 -9 -10 -7 -5 1 -8 -4 -8 -12 0 -8 -3 -16 -7 -18 -5 -1 -20 -29 -36 -61 -15 -32 -34 -60 -42 -63 -8 -4 -15 -14 -15 -24 0 -10 -7 -23 -15 -30 -8 -7 -15 -20 -15 -29 0 -10 203 -230 451 -490 392 -411 450 -475 445 -496 -3 -13 -2 -27 4 -30 5 -3 10 -11 10 -17 0 -6 -7 -5 -17 3 -15 13 -15 12 -3 -8 8 -12 17 -20 20 -18 4 2 7 -2 7 -10 0 -10 -4 -12 -12 -5 -9 7 -16 5 -25 -5 -11 -13 -10 -14 6 -9 15 6 17 4 7 -6 -10 -11 -31 6 -111 91 -55 57 -291 307 -526 554 -235 248 -779 821 -1208 1275 -430 454 -804 849 -832 878 l-50 52 691 0 691 0 60 -62z m2564 52 c555 0 659 -2 656 -14 -2 -10 -664 -711 -1378 -1460 l-56 -58 -338 348 c-186 192 -340 355 -343 361 -3 7 150 174 339 371 188 197 363 381 388 409 25 28 51 49 58 47 8 -2 311 -4 674 -4z m-615 -1767 c-4 -3 -7 0 -7 7 0 7 3 10 7 7 3 -4 3 -10 0 -14z m-1799 -315 c64 -68 218 -227 344 -353 125 -127 228 -234 228 -238 0 -4 -176 -192 -391 -417 l-390 -410 -686 0 -685 0 58 65 c157 173 1390 1474 1398 1475 5 0 61 -55 124 -122z m1649 85 c-4 -3 -7 0 -7 7 0 7 3 10 7 7 3 -4 3 -10 0 -14z m-491 -742 c-4 -5 0 -11 6 -14 7 -2 10 -8 5 -12 -10 -12 -31 11 -23 24 4 6 9 11 12 11 3 0 3 -4 0 -9z m21 -48 c-4 -3 -10 -3 -14 0 -3 4 0 7 7 7 7 0 10 -3 7 -7z"/>
<path d="M3990 1560 c0 -7 3 -10 7 -7 3 4 3 10 0 14 -4 3 -7 0 -7 -7z"/>
</g>
<g id="layer111" fill="#0f82e1" stroke="none">
<path d="M0 1985 l0 -1985 3545 0 3545 0 0 1985 0 1985 -3545 0 -3545 0 0 -1985z m2239 1583 c22 -24 485 -518 1029 -1098 653 -696 987 -1059 981 -1066 -5 -6 -6 -14 -2 -17 3 -4 1 -7 -4 -7 -6 0 -14 6 -17 13 -4 6 -4 2 -2 -11 2 -12 -2 -29 -10 -37 -8 -8 -15 -18 -14 -22 0 -4 -4 -8 -9 -8 -5 0 -260 268 -566 595 -307 327 -561 596 -566 598 -4 2 -11 -2 -15 -9 -5 -8 -3 -9 6 -4 8 5 11 4 6 -3 -4 -6 -13 -9 -21 -5 -10 3 -15 -1 -15 -14 0 -11 -9 -28 -20 -38 -11 -10 -20 -26 -20 -36 0 -9 -3 -19 -7 -21 -13 -5 -63 -87 -63 -102 0 -9 -8 -20 -18 -25 -17 -9 -78 -111 -65 -111 3 0 -1 -8 -10 -17 -8 -10 -17 -22 -19 -28 -2 -5 -6 -9 -10 -7 -5 1 -8 -4 -8 -12 0 -8 -3 -16 -7 -18 -5 -1 -20 -29 -36 -61 -15 -32 -34 -60 -42 -63 -8 -4 -15 -14 -15 -24 0 -10 -7 -23 -15 -30 -8 -7 -15 -20 -15 -29 0 -10 257 -287 571 -616 390 -409 567 -601 557 -604 -9 -4 -14 -18 -13 -38 1 -18 -3 -33 -8 -33 -5 0 -7 6 -4 13 3 8 -1 14 -9 14 -7 0 -11 -4 -9 -8 3 -3 -3 -9 -13 -11 -18 -5 -306 295 -2085 2176 -417 440 -773 816 -790 834 l-31 32 692 0 692 0 39 -42z m2583 32 c555 0 659 -2 656 -14 -2 -10 -664 -711 -1378 -1460 l-56 -58 -338 348 c-186 192 -340 355 -343 361 -3 7 150 174 339 371 188 197 363 381 388 409 25 28 51 49 58 47 8 -2 311 -4 674 -4z m278 -843 c0 -2 -10 -12 -22 -23 l-23 -19 19 23 c18 21 26 27 26 19z m-36 -58 c-3 -5 -10 -6 -16 -3 -7 5 -8 2 -4 -5 9 -14 -20 -51 -39 -51 -6 0 -11 -8 -10 -17 0 -10 5 -18 10 -18 6 0 9 3 8 8 -4 10 5 9 11 -2 3 -4 -4 -17 -15 -27 -13 -12 -19 -14 -17 -5 2 7 -3 16 -11 19 -8 2 -11 0 -8 -5 4 -6 -1 -19 -9 -29 -9 -10 -12 -13 -8 -5 5 10 3 12 -5 7 -9 -6 -9 -11 0 -22 6 -7 16 -11 22 -7 6 3 7 1 3 -6 -4 -6 -11 -9 -16 -6 -4 3 -11 -1 -13 -7 -4 -9 -6 -8 -6 3 -1 9 -8 16 -16 16 -12 0 -12 -3 -2 -16 9 -12 9 -13 0 -7 -8 4 -13 2 -13 -4 0 -6 -4 -9 -9 -6 -5 4 -8 -5 -6 -19 3 -31 -25 -51 -45 -32 -10 10 -11 9 -5 -2 14 -24 12 -71 -2 -60 -8 7 -11 5 -8 -8 3 -21 -23 -55 -36 -47 -5 3 -9 -1 -9 -9 0 -9 -64 -82 -143 -164 -79 -81 -165 -172 -191 -200 l-49 -53 62 0 c48 0 61 -3 61 -15 0 -8 8 -15 18 -16 13 0 14 -2 2 -6 -8 -3 -23 -12 -32 -20 -9 -8 -23 -12 -30 -8 -7 3 -6 0 3 -7 14 -11 14 -15 3 -26 -16 -15 -328 -18 -322 -2 5 15 789 820 815 837 12 8 23 20 23 26 0 18 31 46 46 40 8 -3 11 -9 8 -14z m-4 -54 c-7 -8 -17 -15 -23 -15 -6 0 -2 7 9 15 25 19 30 19 14 0z m-140 -155 c0 -5 -5 -10 -11 -10 -5 0 -7 5 -4 10 3 6 8 10 11 10 2 0 4 -4 4 -10z m-35 -67 c-2 -10 -4 -19 -4 -21 -1 -2 -6 0 -11 3 -8 5 -7 11 1 21 15 18 18 18 14 -3z m-325 -523 c0 -5 -5 -10 -11 -10 -5 0 -7 5 -4 10 3 6 8 10 11 10 2 0 4 -4 4 -10z m-43 -97 c-4 -3 -10 -3 -14 0 -3 4 0 7 7 7 7 0 10 -3 7 -7z m-2109 -285 c64 -68 218 -227 344 -353 125 -127 228 -234 228 -238 0 -4 -176 -192 -391 -417 l-390 -410 -686 0 -685 0 58 65 c157 173 1390 1474 1398 1475 5 0 61 -55 124 -122z m1849 -155 c-4 -3 -10 -3 -14 0 -3 4 0 7 7 7 7 0 10 -3 7 -7z m-470 -760 c-4 -3 -7 0 -7 7 0 7 3 10 7 7 3 -4 3 -10 0 -14z m-42 -52 c3 -5 2 -12 -3 -15 -5 -3 -9 1 -9 9 0 17 3 19 12 6z"/>
<path d="M4233 1413 c4 -3 10 -3 14 0 3 4 0 7 -7 7 -7 0 -10 -3 -7 -7z"/>
<path d="M4185 1350 c-3 -6 1 -7 9 -4 18 7 21 14 7 14 -6 0 -13 -4 -16 -10z"/>
<path d="M4183 1323 c4 -3 10 -3 14 0 3 4 0 7 -7 7 -7 0 -10 -3 -7 -7z"/>
<path d="M5014 2658 c-4 -7 -3 -8 4 -4 7 4 12 9 12 12 0 8 -9 4 -16 -8z"/>
<path d="M4934 2578 c-4 -7 -3 -8 4 -4 7 4 12 9 12 12 0 8 -9 4 -16 -8z"/>
<path d="M4810 2359 c0 -5 5 -7 10 -4 6 3 10 8 10 11 0 2 -4 4 -10 4 -5 0 -10 -5 -10 -11z"/>
</g>
<g id="layer112" fill="#3b49f5" stroke="none">
<path d="M0 1985 l0 -1985 3545 0 3545 0 0 1985 0 1985 -3545 0 -3545 0 0 -1985z m2212 1616 c2 -5 498 -537 1103 -1181 605 -645 1099 -1179 1099 -1185 -1 -7 5 -12 14 -11 8 0 17 -5 19 -12 3 -7 -1 -12 -8 -11 -8 1 -25 -3 -39 -9 l-25 -11 25 -1 c23 -1 22 -3 -19 -16 -11 -4 -10 -7 4 -18 14 -10 15 -15 5 -21 -7 -4 -15 -4 -19 1 -3 5 -14 14 -23 19 -9 6 -301 314 -649 685 -348 371 -635 676 -640 678 -4 2 -11 -2 -15 -9 -5 -8 -3 -9 6 -4 8 5 11 4 6 -3 -4 -6 -13 -9 -21 -5 -10 3 -15 -1 -15 -14 0 -11 -9 -28 -20 -38 -11 -10 -20 -26 -20 -36 0 -9 -3 -19 -7 -21 -13 -5 -63 -87 -63 -102 0 -9 -8 -20 -18 -25 -17 -9 -78 -111 -65 -111 3 0 -1 -8 -10 -17 -8 -10 -17 -22 -19 -28 -2 -5 -6 -9 -10 -7 -5 1 -8 -4 -8 -12 0 -8 -3 -16 -7 -18 -5 -1 -20 -29 -36 -61 -15 -32 -34 -60 -42 -63 -8 -4 -15 -14 -15 -24 0 -10 -7 -23 -15 -30 -8 -7 -15 -20 -15 -29 0 -10 292 -323 648 -697 357 -373 648 -683 648 -689 -1 -5 -5 -9 -10 -7 -5 2 -6 -4 -3 -12 4 -9 -2 -17 -15 -22 -16 -5 -18 -8 -7 -15 8 -4 16 -4 20 2 4 7 9 4 12 -6 4 -9 3 -14 -2 -10 -5 3 -17 -2 -25 -11 -9 -8 -20 -14 -25 -12 -9 3 -803 839 -2193 2308 -430 454 -804 849 -832 878 l-50 52 696 0 c397 0 698 -4 700 -9z m2610 -1 c555 0 659 -2 656 -14 -2 -10 -664 -711 -1378 -1460 l-56 -58 -338 348 c-186 192 -340 355 -343 361 -3 7 150 174 339 371 188 197 363 381 388 409 25 28 51 49 58 47 8 -2 311 -4 674 -4z m548 -825 c10 -12 9 -16 -4 -21 -9 -3 -13 -10 -10 -15 3 -5 -2 -9 -11 -9 -9 0 -14 -4 -11 -9 3 -4 -29 -9 -72 -10 -55 -1 -84 -7 -100 -19 -13 -9 -188 -188 -388 -397 l-365 -380 208 -3 c115 -1 212 -7 217 -12 6 -6 1 -17 -14 -30 -13 -11 -18 -20 -11 -20 7 0 9 -5 6 -10 -4 -6 -9 -8 -13 -6 -4 2 -12 -2 -19 -9 -10 -11 -10 -15 0 -18 7 -3 -129 -6 -301 -6 -191 -1 -312 3 -310 8 2 5 215 228 473 495 l470 486 121 0 c96 0 124 -3 134 -15z m-2962 -1257 c64 -68 218 -227 344 -353 125 -127 228 -234 228 -238 0 -4 -176 -192 -391 -417 l-390 -410 -686 0 -685 0 58 65 c157 173 1390 1474 1398 1475 5 0 61 -55 124 -122z m2033 -375 c13 -16 12 -17 -3 -4 -10 7 -18 15 -18 17 0 8 8 3 21 -13z m-467 -725 c-3 -4 -11 -8 -17 -7 -9 0 -9 2 0 5 7 3 9 13 6 22 -4 14 -3 14 5 2 6 -8 8 -18 6 -22z m-39 -58 c3 -5 4 -10 1 -10 -3 0 -8 5 -11 10 -3 6 -4 10 -1 10 3 0 8 -4 11 -10z"/>
</g>
<g id="layer113" fill="#1091da" stroke="none">
<path d="M0 1985 l0 -1985 3545 0 3545 0 0 1985 0 1985 -3545 0 -3545 0 0 -1985z m2212 1616 c2 -5 498 -537 1103 -1181 605 -645 1099 -1179 1099 -1185 -1 -7 5 -12 14 -11 8 0 17 -5 19 -12 3 -7 -1 -12 -8 -11 -8 1 -25 -3 -39 -9 l-25 -11 25 -1 c23 -1 22 -3 -19 -16 -11 -4 -10 -7 4 -18 14 -10 15 -15 5 -21 -9 -5 -15 -4 -18 3 -2 7 -9 12 -15 12 -7 0 -248 252 -536 560 -289 308 -530 560 -538 560 -7 0 -14 -6 -14 -12 -3 -28 -5 -34 -17 -56 -13 -22 -21 -33 -65 -85 -10 -11 -20 -31 -23 -44 -4 -13 -10 -23 -14 -23 -5 0 -7 -8 -6 -17 2 -10 0 -20 -3 -23 -11 -9 -46 -65 -76 -120 -16 -30 -37 -64 -47 -74 -10 -11 -18 -23 -18 -27 0 -4 -8 -10 -18 -13 -14 -5 -17 -14 -14 -35 3 -20 -2 -33 -15 -42 -10 -8 -27 -30 -37 -49 -11 -19 -23 -38 -28 -41 -5 -3 233 -259 529 -569 296 -310 536 -567 533 -570 -3 -3 -9 -4 -14 -2 -5 2 -6 -4 -3 -12 4 -9 -2 -17 -15 -22 -16 -5 -18 -8 -7 -15 8 -4 16 -4 20 2 4 7 9 4 12 -6 4 -9 3 -14 -2 -10 -5 3 -17 -2 -25 -11 -9 -8 -20 -14 -25 -12 -9 3 -803 839 -2193 2308 -430 454 -804 849 -832 878 l-50 52 696 0 c397 0 698 -4 700 -9z m2610 -1 c555 0 659 -2 656 -14 -2 -10 -664 -711 -1378 -1460 l-56 -58 -338 348 c-186 192 -340 355 -343 361 -3 7 150 174 339 371 188 197 363 381 388 409 25 28 51 49 58 47 8 -2 311 -4 674 -4z m548 -825 c10 -12 9 -16 -4 -21 -9 -3 -13 -10 -10 -15 3 -5 -2 -9 -11 -9 -9 0 -14 -4 -11 -9 3 -4 -29 -9 -72 -10 -55 -1 -84 -7 -100 -19 -13 -9 -188 -188 -388 -397 l-365 -380 208 -3 c115 -1 212 -7 217 -12 6 -6 1 -17 -14 -30 -13 -11 -18 -20 -11 -20 7 0 9 -5 6 -10 -4 -6 -9 -8 -13 -6 -4 2 -12 -2 -19 -9 -10 -11 -10 -15 0 -18 7 -3 -129 -6 -301 -6 -191 -1 -312 3 -310 8 2 5 215 228 473 495 l470 486 121 0 c96 0 124 -3 134 -15z m-2962 -1257 c64 -68 218 -227 344 -353 125 -127 228 -234 228 -238 0 -4 -176 -192 -391 -417 l-390 -410 -686 0 -685 0 58 65 c157 173 1390 1474 1398 1475 5 0 61 -55 124 -122z m2033 -375 c13 -16 12 -17 -3 -4 -10 7 -18 15 -18 17 0 8 8 3 21 -13z m-467 -725 c-3 -4 -11 -8 -17 -7 -9 0 -9 2 0 5 7 3 9 13 6 22 -4 14 -3 14 5 2 6 -8 8 -18 6 -22z m-39 -58 c3 -5 4 -10 1 -10 -3 0 -8 5 -11 10 -3 6 -4 10 -1 10 3 0 8 -4 11 -10z"/>
<path d="M4393 1203 c4 -3 10 -3 14 0 3 4 0 7 -7 7 -7 0 -10 -3 -7 -7z"/>
<path d="M3884 388 c-4 -7 -3 -8 4 -4 7 4 12 9 12 12 0 8 -9 4 -16 -8z"/>
</g>
<g id="layer114" fill="#4759f5" stroke="none">
<path d="M0 1985 l0 -1985 3545 0 3545 0 0 1985 0 1985 -3545 0 -3545 0 0 -1985z m2253 1568 c631 -667 2251 -2403 2254 -2415 5 -17 31 -18 362 -19 196 0 350 -3 344 -6 -7 -2 -16 -3 -19 -1 -4 2 -13 -13 -19 -32 -6 -19 -14 -33 -16 -30 -7 7 -38 -24 -32 -32 2 -5 -146 -8 -329 -8 l-333 1 -584 624 c-322 344 -590 625 -598 625 -7 0 -14 -6 -14 -12 -3 -28 -5 -34 -17 -56 -13 -22 -21 -33 -65 -85 -10 -11 -20 -31 -23 -44 -4 -13 -10 -23 -14 -23 -5 0 -7 -8 -6 -17 2 -10 0 -20 -3 -23 -11 -9 -46 -65 -76 -120 -16 -30 -37 -64 -47 -74 -10 -11 -18 -23 -18 -27 0 -4 -8 -10 -18 -13 -14 -5 -17 -14 -14 -35 3 -20 -2 -33 -15 -42 -10 -8 -27 -30 -37 -49 -11 -19 -23 -38 -28 -41 -5 -3 287 -316 649 -695 l657 -689 213 -3 c207 -2 213 -3 213 -23 0 -11 -4 -17 -10 -14 -5 3 -10 -3 -10 -13 0 -11 -7 -23 -16 -26 -9 -3 -122 -6 -253 -6 l-237 0 -42 43 c-23 24 -40 46 -36 49 3 4 -360 392 -808 863 -447 472 -1154 1218 -1571 1659 -417 440 -773 816 -790 834 l-31 32 691 0 692 0 54 -57z m2569 47 c555 0 659 -2 656 -14 -2 -10 -664 -711 -1378 -1460 l-56 -58 -338 348 c-186 192 -340 355 -343 361 -3 7 150 174 339 371 188 197 363 381 388 409 25 28 51 49 58 47 8 -2 311 -4 674 -4z m1024 -825 c129 -23 282 -73 267 -89 -4 -4 0 -4 9 -1 9 4 18 0 21 -9 8 -20 -13 -32 -25 -15 -6 10 -8 7 -7 -11 3 -57 11 -56 -121 -11 -47 17 -116 35 -155 41 -38 7 -78 16 -87 21 -10 5 -142 9 -294 9 l-276 0 -69 -67 c-37 -38 -210 -216 -384 -398 l-316 -330 630 -3 c552 -2 631 -4 631 -17 0 -8 -5 -15 -12 -15 -6 0 -8 -3 -5 -6 3 -4 0 -16 -8 -27 -12 -16 -12 -24 -2 -36 11 -14 10 -14 -5 -2 -10 7 -15 17 -12 22 3 5 -2 6 -10 3 -8 -3 -12 -12 -9 -20 4 -12 -98 -14 -717 -14 -443 0 -720 4 -718 9 2 5 215 228 473 495 l470 486 321 0 c245 0 342 -4 410 -15z m-179 -957 c-3 -8 -6 -5 -6 6 -1 11 2 17 5 13 3 -3 4 -12 1 -19z m-3259 -300 c64 -68 218 -227 344 -353 125 -127 228 -234 228 -238 0 -4 -176 -192 -391 -417 l-390 -410 -686 0 -685 0 58 65 c157 173 1390 1474 1398 1475 5 0 61 -55 124 -122z m2242 -1318 c0 -5 -2 -10 -4 -10 -3 0 -8 5 -11 10 -3 6 -1 10 4 10 6 0 11 -4 11 -10z"/>
</g>
<g id="layer115" fill="#13b4d4" stroke="none">
<path d="M0 1985 l0 -1985 3545 0 3545 0 0 1985 0 1985 -3545 0 -3545 0 0 -1985z m2253 1568 c631 -667 2251 -2403 2254 -2415 5 -17 31 -18 362 -19 196 0 350 -3 344 -6 -7 -2 -16 -3 -19 -1 -4 2 -13 -13 -19 -32 -6 -19 -14 -33 -16 -30 -7 7 -38 -24 -32 -32 2 -5 -146 -8 -329 -8 l-333 1 -430 459 c-236 253 -452 483 -479 512 -27 29 -46 45 -43 36 4 -12 1 -16 -13 -13 -11 2 -19 1 -19 -3 4 -24 -3 -42 -16 -42 -8 0 -15 -9 -15 -19 0 -10 -6 -21 -14 -24 -8 -3 -17 -18 -20 -34 -4 -16 -18 -42 -31 -57 -14 -16 -25 -33 -25 -37 0 -8 -71 -124 -90 -146 -5 -7 -10 -19 -10 -28 0 -8 -5 -15 -11 -15 -5 0 -8 -4 -5 -9 3 -5 -1 -12 -10 -15 -8 -3 -13 -10 -10 -15 3 -5 -1 -14 -9 -21 -8 -7 -12 -16 -9 -21 3 -5 -1 -9 -8 -9 -8 0 -20 -16 -27 -35 -7 -19 -17 -35 -22 -35 -5 0 -9 -7 -9 -15 0 -9 -7 -18 -15 -21 -8 -4 -12 -11 -8 -17 4 -7 0 -8 -11 -4 -37 14 60 -92 569 -626 l520 -546 213 0 c207 -1 212 -1 212 -22 0 -11 -4 -17 -10 -14 -5 3 -10 -3 -10 -13 0 -11 -7 -23 -16 -26 -9 -3 -122 -6 -253 -6 l-237 0 -42 43 c-23 24 -40 46 -36 49 3 4 -360 392 -808 863 -447 472 -1154 1218 -1571 1659 -417 440 -773 816 -790 834 l-31 32 691 0 692 0 54 -57z m2569 47 c555 0 659 -2 656 -14 -2 -10 -664 -711 -1378 -1460 l-56 -58 -338 348 c-186 192 -340 355 -343 361 -3 7 150 174 339 371 188 197 363 381 388 409 25 28 51 49 58 47 8 -2 311 -4 674 -4z m1024 -825 c129 -23 282 -73 267 -89 -4 -4 0 -4 9 -1 9 4 18 0 21 -9 8 -20 -13 -32 -25 -15 -6 10 -8 7 -7 -11 3 -57 11 -56 -121 -11 -47 17 -116 35 -155 41 -38 7 -78 16 -87 21 -10 5 -142 9 -294 9 l-276 0 -69 -67 c-37 -38 -210 -216 -384 -398 l-316 -330 630 -3 c552 -2 631 -4 631 -17 0 -8 -5 -15 -12 -15 -6 0 -8 -3 -5 -6 3 -4 0 -16 -8 -27 -12 -16 -12 -24 -2 -36 11 -14 10 -14 -5 -2 -10 7 -15 17 -12 22 3 5 -2 6 -10 3 -8 -3 -12 -12 -9 -20 4 -12 -98 -14 -717 -14 -443 0 -720 4 -718 9 2 5 215 228 473 495 l470 486 321 0 c245 0 342 -4 410 -15z m-179 -957 c-3 -8 -6 -5 -6 6 -1 11 2 17 5 13 3 -3 4 -12 1 -19z m-3259 -300 c64 -68 218 -227 344 -353 125 -127 228 -234 228 -238 0 -4 -176 -192 -391 -417 l-390 -410 -686 0 -685 0 58 65 c157 173 1390 1474 1398 1475 5 0 61 -55 124 -122z m2242 -1318 c0 -5 -2 -10 -4 -10 -3 0 -8 5 -11 10 -3 6 -1 10 4 10 6 0 11 -4 11 -10z"/>
<path d="M5150 1080 c0 -7 3 -10 7 -7 3 4 3 10 0 14 -4 3 -7 0 -7 -7z"/>
</g>
<g id="layer116" fill="#13c1d1" stroke="none">
<path d="M0 1985 l0 -1985 3545 0 3545 0 0 1985 0 1985 -3545 0 -3545 0 0 -1985z m2253 1568 c631 -667 2251 -2403 2254 -2415 5 -17 41 -18 584 -18 l579 0 64 29 c35 16 81 45 103 64 140 127 139 349 -1 487 -49 48 -158 102 -201 100 -128 -7 -1466 2 -1463 9 2 5 215 228 473 495 l470 486 321 0 c397 0 454 -7 659 -87 187 -72 332 -166 463 -301 110 -112 222 -278 206 -304 -4 -6 -3 -8 3 -5 6 4 13 0 17 -8 3 -8 0 -15 -7 -15 -7 0 -3 -7 7 -15 19 -14 19 -15 -8 -15 -17 0 -25 -4 -21 -11 4 -6 14 -8 24 -4 12 5 13 4 4 -6 -9 -9 -18 -8 -37 5 -15 9 -26 12 -26 7 0 -5 6 -11 13 -14 9 -3 9 -7 0 -17 -9 -10 -13 -7 -19 16 -4 16 -10 31 -14 34 -4 3 -24 32 -43 65 -108 184 -301 357 -519 464 -109 53 -246 97 -335 107 -29 4 -56 11 -59 15 -3 5 -131 9 -286 9 l-280 0 -69 -67 c-37 -38 -210 -216 -384 -398 l-316 -330 658 -5 658 -5 65 -32 c120 -59 198 -147 240 -274 18 -54 21 -81 18 -170 -3 -99 -6 -110 -41 -183 -45 -90 -122 -172 -199 -210 l-52 -26 -645 0 -646 1 -430 459 c-236 253 -452 483 -479 512 -27 29 -46 45 -43 36 4 -12 1 -16 -13 -13 -11 2 -19 1 -19 -3 4 -24 -3 -42 -16 -42 -8 0 -15 -9 -15 -19 0 -10 -6 -21 -14 -24 -8 -3 -17 -18 -20 -34 -4 -16 -18 -42 -31 -57 -14 -16 -25 -33 -25 -37 0 -8 -71 -124 -90 -146 -5 -7 -10 -19 -10 -28 0 -8 -5 -15 -11 -15 -5 0 -8 -4 -5 -9 3 -5 -1 -12 -10 -15 -8 -3 -13 -10 -10 -15 3 -5 -1 -14 -9 -21 -8 -7 -12 -16 -9 -21 3 -5 -1 -9 -8 -9 -8 0 -20 -16 -27 -35 -7 -19 -17 -35 -22 -35 -5 0 -9 -7 -9 -15 0 -9 -7 -18 -15 -21 -8 -4 -12 -11 -8 -17 4 -7 0 -8 -11 -4 -36 14 39 -69 553 -608 288 -302 527 -553 530 -557 4 -4 331 -8 726 -9 396 -1 712 -4 703 -6 -10 -2 -18 -13 -18 -23 0 -53 50 -50 -759 -50 l-747 0 -42 43 c-23 24 -40 46 -36 49 3 4 -360 392 -808 863 -447 472 -1154 1218 -1571 1659 -417 440 -773 816 -790 834 l-31 32 691 0 692 0 54 -57z m2569 47 c555 0 659 -2 656 -14 -2 -10 -664 -711 -1378 -1460 l-56 -58 -338 348 c-186 192 -340 355 -343 361 -3 7 150 174 339 371 188 197 363 381 388 409 25 28 51 49 58 47 8 -2 311 -4 674 -4z m1998 -1574 c0 -3 -4 -8 -10 -11 -5 -3 -10 -1 -10 4 0 6 5 11 10 11 6 0 10 -2 10 -4z m-65 -45 c-3 -6 -11 -11 -17 -11 -6 0 -6 6 2 15 14 17 26 13 15 -4z m45 13 c0 -8 -19 -13 -24 -6 -3 5 1 9 9 9 8 0 15 -2 15 -3z m-4392 -476 c64 -68 218 -227 344 -353 125 -127 228 -234 228 -238 0 -4 -176 -192 -391 -417 l-390 -410 -686 0 -685 0 58 65 c157 173 1390 1474 1398 1475 5 0 61 -55 124 -122z m4122 -922 c0 -3 -5 -8 -12 -12 -7 -4 -8 -3 -4 4 7 12 16 16 16 8z m-830 -396 c0 -5 -2 -10 -4 -10 -3 0 -8 5 -11 10 -3 6 -1 10 4 10 6 0 11 -4 11 -10z m-60 -20 c0 -5 -7 -10 -15 -10 -8 0 -15 5 -15 10 0 6 7 10 15 10 8 0 15 -4 15 -10z"/>
<path d="M6751 2064 c0 -11 3 -14 6 -6 3 7 2 16 -1 19 -3 4 -6 -2 -5 -13z"/>
<path d="M6723 2063 c4 -3 10 -3 14 0 3 4 0 7 -7 7 -7 0 -10 -3 -7 -7z"/>
</g>
<g id="layer117" fill="#566ef5" stroke="none">
<path d="M5109 2643 c-37 -38 -210 -216 -384 -398 l-316 -330 658 -5 658 -5 65 -32 c120 -59 198 -147 240 -274 18 -54 21 -81 18 -170 -3 -99 -6 -110 -41 -183 -45 -90 -122 -172 -199 -210 l-52 -26 -645 0 -646 1 -430 459 c-236 253 -452 483 -479 512 -27 29 -46 45 -43 36 4 -12 1 -16 -13 -13 -11 2 -19 1 -19 -3 4 -24 -3 -42 -16 -42 -8 0 -15 -9 -15 -19 0 -10 -6 -21 -14 -24 -8 -3 -17 -18 -20 -34 -4 -16 -18 -42 -31 -57 -14 -16 -25 -33 -25 -37 0 -8 -71 -124 -90 -146 -5 -7 -10 -19 -10 -28 0 -8 -5 -15 -11 -15 -5 0 -8 -4 -5 -9 3 -5 -1 -12 -10 -15 -8 -3 -13 -10 -10 -15 3 -5 -1 -14 -9 -21 -8 -7 -12 -16 -9 -21 3 -5 -1 -9 -8 -9 -8 0 -20 -16 -27 -35 -7 -19 -17 -35 -22 -35 -5 0 -9 -7 -9 -15 0 -9 -7 -18 -15 -21 -8 -4 -12 -11 -8 -17 4 -7 0 -8 -11 -4 -37 14 60 -92 569 -626 l520 -546 763 0 c665 -1 772 1 835 15 166 37 348 111 472 192 87 56 207 161 199 174 -4 7 -2 8 4 4 22 -13 159 170 230 309 72 141 108 262 132 446 13 95 1 274 -25 387 -8 34 -17 76 -20 93 -15 82 -115 279 -198 387 -66 85 -170 184 -269 255 -146 104 -368 196 -515 213 -29 4 -56 11 -59 15 -3 5 -131 9 -286 9 l-280 0 -69 -67z"/>
</g>
<g id="layer118" fill="#959595" stroke="none">
<path d="M0 1985 l0 -1985 3545 0 3545 0 0 1985 0 1985 -3545 0 -3545 0 0 -1985z m2253 1568 c631 -667 2251 -2403 2254 -2415 5 -17 41 -18 584 -18 l579 0 64 29 c35 16 81 45 103 64 140 127 139 349 -1 487 -49 48 -158 102 -201 100 -128 -7 -1466 2 -1463 9 2 5 215 228 473 495 l470 486 321 0 c403 0 454 -7 671 -92 395 -154 671 -470 786 -898 30 -112 31 -120 31 -340 0 -220 -1 -228 -31 -340 -120 -450 -431 -786 -859 -929 -190 -64 -156 -62 -1089 -61 l-850 0 -42 42 c-23 23 -40 45 -37 49 3 5 -361 394 -808 865 -447 471 -1154 1217 -1571 1658 -417 440 -773 816 -790 834 l-31 32 691 0 692 0 54 -57z m2569 47 c555 0 659 -2 656 -14 -2 -10 -664 -711 -1378 -1460 l-56 -58 -338 348 c-186 192 -340 355 -343 361 -3 7 150 174 339 371 188 197 363 381 388 409 25 28 51 49 58 47 8 -2 311 -4 674 -4z m-2414 -2082 c64 -68 218 -227 344 -353 125 -127 228 -234 228 -238 0 -4 -176 -192 -391 -417 l-390 -410 -686 0 -685 0 58 65 c157 173 1390 1474 1398 1475 5 0 61 -55 124 -122z"/>
<path d="M3670 3016 c-122 -129 -221 -238 -221 -241 -1 -4 132 -141 295 -305 l296 -298 93 97 c138 141 337 355 337 361 -1 12 -110 120 -122 120 -10 0 -9 3 2 10 8 5 11 10 5 10 -15 0 -75 56 -68 64 3 3 -2 6 -12 6 -10 0 -16 3 -12 6 6 7 -17 34 -28 34 -4 0 -16 11 -27 25 -11 14 -24 23 -29 20 -5 -4 -6 2 -2 11 4 12 3 15 -5 10 -7 -4 -12 -1 -12 7 0 8 -9 17 -21 20 -12 3 -18 10 -15 15 3 6 -1 13 -10 16 -9 4 -14 13 -10 22 3 9 2 12 -4 9 -12 -8 -70 44 -70 62 0 7 -6 13 -14 13 -7 0 -20 8 -27 17 -12 14 -12 16 0 8 10 -5 12 -4 7 4 -4 6 -11 9 -15 7 -10 -7 -71 62 -71 79 0 8 -4 16 -9 19 -5 3 -109 -99 -231 -228z"/>
<path d="M1809 1008 c-739 -779 -798 -842 -799 -852 0 -5 89 -7 217 -3 120 4 378 7 573 7 l355 0 325 341 c179 188 342 361 364 386 l39 44 -109 112 c-60 62 -191 196 -290 299 l-181 187 -494 -521z"/>
</g>
<g id="layer119" fill="#637df5" stroke="none">
<path d="M5109 2643 c-37 -38 -210 -216 -384 -398 l-316 -330 658 -5 658 -5 65 -32 c120 -59 198 -147 240 -274 18 -54 21 -81 18 -170 -3 -99 -6 -110 -41 -183 -45 -90 -122 -172 -199 -210 l-52 -26 -645 0 -646 1 -360 385 c-338 362 -404 428 -389 389 4 -8 1 -15 -5 -15 -6 0 -20 -18 -31 -40 -11 -22 -17 -40 -14 -40 4 0 -3 -8 -14 -19 -12 -10 -22 -25 -22 -34 0 -8 -7 -18 -16 -21 -8 -3 -12 -10 -9 -16 3 -6 -1 -13 -9 -16 -9 -3 -13 -10 -10 -15 3 -5 1 -9 -5 -9 -6 0 -13 -11 -17 -25 -3 -14 -9 -25 -13 -25 -4 0 -13 -16 -21 -35 -7 -19 -18 -31 -23 -28 -6 3 -7 1 -3 -6 5 -7 0 -19 -11 -29 -10 -9 -24 -29 -32 -44 -8 -16 -18 -28 -23 -28 -4 0 -8 -9 -8 -20 0 -10 -7 -23 -16 -28 -9 -5 -15 -15 -12 -22 2 -7 -6 -24 -19 -38 -13 -14 -23 -32 -23 -40 0 -8 -10 -23 -22 -33 l-21 -19 39 -45 c21 -25 219 -233 439 -464 l400 -420 763 0 c665 -1 772 1 835 15 166 37 348 111 472 192 87 56 207 161 199 174 -4 7 -2 8 4 4 22 -13 159 170 230 309 72 141 108 262 132 446 13 95 1 274 -25 387 -8 34 -17 76 -20 93 -15 82 -115 279 -198 387 -66 85 -170 184 -269 255 -146 104 -368 196 -515 213 -29 4 -56 11 -59 15 -3 5 -131 9 -286 9 l-280 0 -69 -67z"/>
</g>
<g id="layer120" fill="#7392f5" stroke="none">
<path d="M5109 2643 c-37 -38 -210 -216 -384 -398 l-316 -330 658 -5 658 -5 65 -32 c120 -59 198 -147 240 -274 18 -54 21 -81 18 -170 -3 -99 -6 -110 -41 -183 -45 -90 -122 -172 -199 -210 l-52 -26 -645 0 -646 1 -205 219 c-113 121 -228 245 -256 276 l-51 56 -27 -25 c-14 -13 -26 -32 -26 -41 0 -10 -5 -14 -11 -11 -6 4 -9 1 -8 -6 2 -8 -7 -30 -19 -49 -12 -19 -22 -30 -23 -25 0 6 -5 -1 -11 -15 -6 -14 -10 -31 -9 -38 1 -7 -5 -15 -14 -18 -9 -4 -14 -12 -12 -18 5 -12 -17 -37 -27 -30 -3 2 -4 1 -1 -2 2 -4 -14 -33 -35 -65 -22 -32 -40 -62 -40 -67 0 -5 -9 -19 -20 -32 -11 -12 -17 -26 -14 -31 3 -5 -9 -22 -25 -38 -17 -16 -33 -41 -37 -55 -3 -14 -12 -26 -20 -26 -17 0 -18 -16 -2 -26 7 -4 8 -3 4 4 -4 7 -2 12 3 12 20 0 11 -17 -16 -36 -27 -17 -28 -17 -13 2 14 18 14 18 -3 5 -16 -13 -16 -15 5 -42 13 -15 163 -174 333 -353 l310 -325 763 0 c665 -1 772 1 835 15 166 37 348 111 472 192 87 56 207 161 199 174 -4 7 -2 8 4 4 22 -13 159 170 230 309 72 141 108 262 132 446 13 95 1 274 -25 387 -8 34 -17 76 -20 93 -15 82 -115 279 -198 387 -66 85 -170 184 -269 255 -146 104 -368 196 -515 213 -29 4 -56 11 -59 15 -3 5 -131 9 -286 9 l-280 0 -69 -67z"/>
</g>
<g id="layer121" fill="#b0b0b0" stroke="none">
<path d="M0 1985 l0 -1985 3545 0 3545 0 0 1985 0 1985 -3545 0 -3545 0 0 -1985z m2253 1568 c631 -667 2251 -2403 2254 -2415 5 -17 41 -18 584 -18 l579 0 64 29 c35 16 81 45 103 64 140 127 139 349 -1 487 -49 48 -158 102 -201 100 -128 -7 -1466 2 -1463 9 2 5 215 228 473 495 l470 486 321 0 c403 0 454 -7 671 -92 395 -154 671 -470 786 -898 30 -112 31 -120 31 -340 0 -220 -1 -228 -31 -340 -120 -450 -431 -786 -859 -929 -190 -64 -156 -62 -1089 -61 l-850 0 -42 42 c-23 23 -40 45 -37 49 3 5 -361 394 -808 865 -447 471 -1154 1217 -1571 1658 -417 440 -773 816 -790 834 l-31 32 691 0 692 0 54 -57z m2569 47 c563 0 659 -2 656 -14 -4 -17 -1429 -1518 -1438 -1514 -3 2 -160 162 -348 357 l-342 354 108 111 c306 317 667 698 671 707 2 6 10 8 18 5 8 -3 312 -6 675 -6z m-2389 -2107 c78 -82 233 -241 346 -356 159 -160 203 -211 196 -222 -6 -7 -181 -194 -390 -414 l-380 -399 -689 -1 -688 -1 38 44 c84 97 1410 1496 1418 1496 4 0 71 -66 149 -147z"/>
<path d="M2099 1313 c-44 -48 -759 -803 -1028 -1085 l-64 -68 574 0 574 1 296 312 c180 189 291 313 282 315 -11 3 -12 7 -1 20 7 10 9 14 4 10 -4 -4 -17 2 -29 12 -11 11 -24 17 -29 14 -4 -3 -8 0 -8 6 0 19 -49 62 -63 54 -8 -5 -7 -2 2 9 11 14 11 17 -1 17 -7 0 -20 9 -28 19 -7 11 -17 18 -22 15 -4 -3 -8 2 -8 10 0 14 -12 20 -32 17 -5 0 -8 6 -8 15 0 9 -5 12 -12 8 -7 -5 -9 -2 -6 8 4 10 -10 27 -43 53 -27 20 -49 43 -49 51 0 13 -13 19 -34 15 -5 -1 -6 5 -2 14 4 11 2 15 -6 13 -15 -5 -61 38 -71 65 -4 10 -11 15 -17 12 -5 -3 -10 1 -10 10 0 9 -4 13 -10 10 -9 -6 -14 8 -11 28 0 4 -3 7 -9 7 -5 0 -10 -6 -10 -12 0 -7 -8 -1 -17 12 -9 14 -20 27 -23 30 -4 3 -11 13 -17 23 -9 17 -16 12 -64 -40z"/>
<path d="M2530 1285 c30 -30 57 -55 59 -55 3 0 -19 25 -49 55 -30 30 -57 55 -59 55 -3 0 19 -25 49 -55z"/>
<path d="M2825 980 c27 -27 51 -50 54 -50 3 0 -17 23 -44 50 -27 28 -51 50 -54 50 -3 0 17 -22 44 -50z"/>
</g>
<g id="layer122" fill="#7fa1f5" stroke="none">
<path d="M5159 2691 c-62 -49 -504 -523 -501 -537 2 -9 -1 -13 -6 -10 -6 3 -13 -1 -16 -10 -4 -10 -2 -13 7 -9 6 4 1 -3 -13 -15 -14 -12 -18 -19 -10 -15 13 6 13 5 0 -7 -14 -12 -36 -53 -38 -71 -1 -4 -11 -17 -24 -28 -13 -11 -16 -18 -8 -14 8 4 4 -3 -10 -14 -21 -18 -22 -20 -5 -15 16 5 15 3 -5 -12 -25 -19 -14 -19 585 -24 l610 -5 65 -32 c120 -59 198 -147 240 -274 18 -54 21 -81 18 -170 -3 -99 -6 -110 -41 -183 -45 -90 -122 -172 -199 -210 l-52 -26 -645 0 -646 1 -149 160 c-81 88 -153 158 -159 156 -6 -2 -12 -10 -15 -18 -3 -11 -2 -11 7 1 7 10 11 11 11 3 0 -7 -9 -17 -20 -23 -11 -6 -20 -20 -20 -31 0 -11 -7 -22 -15 -25 -8 -4 -15 -12 -15 -19 0 -6 -9 -20 -20 -30 -11 -10 -17 -21 -15 -26 3 -4 -7 -17 -21 -28 -15 -12 -23 -21 -19 -21 4 0 -2 -16 -14 -36 -12 -19 -21 -41 -21 -49 0 -7 -7 -15 -15 -19 -8 -3 -15 -10 -15 -16 0 -12 -15 -32 -42 -58 -10 -9 -18 -24 -18 -34 0 -10 -9 -27 -20 -38 -11 -11 -20 -27 -20 -35 0 -8 -4 -15 -9 -15 -5 0 -12 -14 -16 -30 -4 -17 -11 -30 -16 -30 -5 0 -9 -7 -9 -16 0 -8 -4 -13 -8 -10 -4 2 -14 -9 -21 -25 -13 -30 -12 -31 81 -127 52 -53 150 -156 219 -229 l124 -131 763 -1 c665 -1 772 1 835 15 166 37 348 111 472 192 87 56 207 161 199 174 -4 7 -2 8 4 4 22 -13 159 170 230 309 72 141 108 262 132 446 13 95 1 274 -25 387 -8 34 -17 76 -20 93 -15 82 -115 279 -198 387 -66 85 -170 184 -269 255 -146 104 -368 196 -515 213 -29 4 -56 11 -59 15 -3 5 -130 9 -283 9 -258 0 -280 -1 -302 -19z m-469 -505 c0 -2 -8 -10 -17 -17 -16 -13 -17 -12 -4 4 13 16 21 21 21 13z"/>
</g>
<g id="layer123" fill="#8cb3f5" stroke="none">
<path d="M5323 2704 c-7 -3 -9 -12 -6 -20 3 -9 -1 -14 -13 -14 -16 0 -17 -2 -4 -10 12 -8 10 -10 -10 -11 -14 0 -19 -3 -12 -6 6 -2 12 -9 12 -14 0 -6 -4 -8 -9 -5 -11 7 -33 -52 -25 -65 3 -5 -2 -9 -10 -9 -9 0 -16 -6 -16 -14 0 -7 -7 -19 -15 -26 -8 -7 -12 -16 -9 -21 3 -5 0 -9 -5 -9 -6 0 -11 -6 -11 -14 0 -19 -29 -48 -41 -41 -5 4 -9 -1 -9 -9 0 -9 6 -16 13 -17 6 0 -2 -5 -20 -10 -22 -6 -30 -14 -27 -24 3 -7 13 -11 22 -9 14 5 14 4 -1 -6 -9 -6 -15 -16 -11 -22 4 -6 -2 -8 -17 -4 -13 3 -18 3 -11 0 17 -8 15 -24 -7 -43 -10 -9 -22 -27 -26 -41 -4 -14 -18 -35 -31 -48 -12 -13 -20 -30 -17 -38 3 -8 -1 -14 -9 -14 -9 0 -20 -17 -27 -40 -6 -22 -16 -40 -21 -40 -6 0 -10 -6 -10 -14 0 -8 -10 -23 -23 -33 -25 -20 -48 -51 -29 -39 7 4 12 2 12 -3 0 -6 -4 -11 -9 -11 -5 0 -11 -9 -14 -20 -3 -12 -15 -21 -29 -22 -12 -1 180 -5 427 -8 l450 -5 65 -32 c120 -59 198 -147 240 -274 18 -54 21 -81 18 -170 -3 -99 -6 -110 -41 -183 -45 -90 -122 -172 -199 -210 l-52 -26 -646 0 -647 0 -42 50 c-23 28 -48 50 -56 50 -7 0 -15 6 -18 13 -3 6 -4 -7 -2 -30 2 -41 -8 -57 -18 -30 -4 9 -6 9 -6 0 -1 -6 3 -14 8 -18 5 -3 -1 -17 -15 -32 -14 -15 -23 -32 -20 -39 3 -7 -3 -16 -13 -19 -10 -3 -23 -23 -30 -45 -6 -22 -16 -40 -21 -40 -6 0 -10 -6 -10 -14 0 -8 -7 -17 -16 -20 -8 -3 -13 -10 -10 -14 7 -12 -23 -54 -34 -47 -4 3 -6 -4 -3 -15 3 -12 -1 -22 -11 -26 -9 -3 -14 -10 -11 -14 3 -4 -2 -13 -10 -20 -8 -7 -13 -16 -10 -20 3 -5 -6 -17 -20 -28 -15 -12 -23 -26 -19 -35 3 -8 -1 -17 -9 -20 -8 -3 -25 -26 -38 -51 -12 -25 -26 -43 -31 -40 -13 8 -28 -5 -22 -21 4 -8 11 -12 18 -8 7 4 7 1 -1 -9 -7 -8 -9 -19 -5 -23 4 -5 1 -5 -6 -1 -7 4 -9 12 -6 18 4 7 2 8 -5 4 -8 -5 27 -49 106 -131 l118 -123 763 -1 c666 -1 772 1 835 15 166 37 348 111 472 192 87 56 207 161 199 174 -4 7 -2 8 4 4 22 -13 159 170 230 309 72 141 108 262 132 446 13 95 1 274 -25 387 -8 34 -17 76 -20 93 -15 82 -115 279 -198 387 -66 85 -170 184 -269 255 -146 104 -368 196 -515 213 -29 4 -56 11 -59 15 -5 9 -400 11 -421 3z"/>
<path d="M4935 2090 c3 -5 10 -10 16 -10 5 0 9 5 9 10 0 6 -7 10 -16 10 -8 0 -12 -4 -9 -10z"/>
<path d="M4163 803 c4 -3 10 -3 14 0 3 4 0 7 -7 7 -7 0 -10 -3 -7 -7z"/>
</g>
<g id="layer124" fill="#9cc6f6" stroke="none">
<path d="M5711 2696 c-18 -10 -20 -15 -10 -19 10 -4 9 -6 -3 -6 -12 -1 -18 -9 -18 -24 0 -12 -9 -28 -19 -34 -11 -7 -28 -29 -37 -50 -10 -21 -21 -40 -24 -43 -14 -12 -50 -69 -50 -79 0 -12 -14 -32 -42 -58 -9 -9 -14 -22 -11 -29 3 -8 0 -14 -6 -14 -6 0 -11 -8 -11 -17 0 -10 -9 -29 -20 -43 -11 -14 -20 -31 -20 -37 0 -7 -13 -26 -30 -41 -16 -16 -30 -34 -30 -41 0 -6 -4 -11 -10 -11 -5 0 -10 -11 -10 -25 0 -14 -3 -25 -8 -25 -4 0 -12 -8 -17 -18 -24 -43 -52 -86 -77 -119 -16 -20 -28 -39 -28 -44 0 -4 111 -9 248 -11 l247 -3 65 -32 c120 -59 198 -147 240 -274 18 -54 21 -81 18 -170 -3 -99 -6 -110 -41 -183 -45 -90 -122 -172 -199 -210 l-52 -26 -534 0 c-348 0 -540 -4 -553 -10 -10 -6 -19 -19 -19 -30 0 -16 -22 -66 -43 -94 -38 -55 -79 -121 -87 -142 -6 -14 -14 -22 -20 -19 -5 3 -10 1 -10 -5 0 -21 -33 -84 -62 -118 -15 -18 -28 -42 -28 -53 0 -11 -12 -31 -26 -44 -15 -14 -23 -25 -18 -25 5 0 4 -4 -1 -8 -6 -4 -16 -20 -24 -37 -7 -16 -18 -40 -24 -52 -6 -13 -15 -23 -21 -23 -6 0 -17 -14 -24 -30 -8 -17 -17 -28 -21 -25 -5 2 -6 -7 -3 -20 2 -14 0 -25 -4 -25 -5 0 -15 -9 -22 -20 -12 -19 -6 -20 748 -20 664 0 769 2 833 16 166 37 348 111 472 192 87 56 207 161 199 174 -4 7 -2 8 4 4 22 -13 159 170 230 309 72 141 108 262 132 446 13 95 1 274 -25 387 -8 34 -17 76 -20 93 -15 82 -115 279 -198 387 -66 85 -170 184 -269 255 -145 103 -363 194 -510 213 -29 4 -58 10 -63 15 -6 4 -21 2 -34 -5z"/>
</g>
<g id="layer125" fill="#d1d1d1" stroke="none">
<path d="M0 1985 l0 -1985 3545 0 3545 0 0 1985 0 1985 -3545 0 -3545 0 0 -1985z m2253 1568 c631 -667 2251 -2403 2254 -2415 5 -17 41 -18 584 -18 l579 0 64 29 c35 16 81 45 103 64 140 127 139 349 -1 487 -49 48 -158 102 -201 100 -128 -7 -1466 2 -1463 9 2 5 215 228 473 495 l470 486 321 0 c403 0 454 -7 671 -92 395 -154 671 -470 786 -898 30 -112 31 -120 31 -340 0 -220 -1 -228 -31 -340 -120 -450 -431 -786 -859 -929 -190 -64 -156 -62 -1089 -61 l-850 0 -42 42 c-23 23 -40 45 -37 49 3 5 -361 394 -808 865 -447 471 -1154 1217 -1571 1658 -417 440 -773 816 -790 834 l-31 32 691 0 692 0 54 -57z m2570 47 c578 0 658 -2 655 -15 -4 -19 -1428 -1517 -1438 -1513 -4 2 -161 162 -349 357 l-342 353 83 87 c361 373 693 725 690 734 -2 5 7 7 20 3 13 -3 319 -6 681 -6z m-2021 -2485 c98 -100 178 -185 178 -191 0 -6 -9 -19 -20 -29 -11 -10 -17 -22 -13 -28 3 -5 2 -7 -4 -4 -5 3 -173 -167 -374 -378 l-364 -384 -688 -1 -689 0 19 24 c10 13 337 362 727 774 l709 751 171 -177 c93 -97 250 -258 348 -357z"/>
<path d="M1727 918 c-101 -106 -304 -319 -449 -473 l-265 -280 566 -3 566 -3 182 188 c101 103 183 191 183 196 0 4 -9 16 -19 26 -11 11 -17 22 -14 25 4 3 2 6 -4 6 -15 0 -103 84 -103 98 0 7 -4 12 -9 12 -5 0 -30 23 -57 50 -27 28 -53 50 -59 50 -5 0 -19 14 -30 30 -11 17 -28 33 -37 36 -10 3 -18 9 -18 14 0 5 -11 21 -25 36 -14 15 -25 24 -25 21 0 -3 -11 5 -25 19 -14 14 -25 29 -25 35 0 6 -4 8 -9 4 -5 -3 -12 4 -16 15 -3 11 -11 20 -17 20 -5 0 -25 16 -44 35 -18 19 -40 35 -48 35 -8 0 -97 -87 -199 -192z"/>
</g>
<g id="layer126" fill="#a9d7f6" stroke="none">
<path d="M6054 2589 c-13 -15 -14 -19 -3 -19 9 0 10 -3 3 -8 -6 -4 -14 -17 -18 -29 -4 -13 -12 -23 -17 -23 -6 0 -17 -16 -25 -35 -8 -20 -21 -38 -29 -42 -8 -3 -15 -16 -15 -29 0 -13 -4 -24 -10 -24 -5 0 -10 -7 -10 -15 0 -8 -7 -15 -15 -15 -8 0 -15 -6 -16 -12 -2 -31 -9 -52 -19 -58 -6 -4 -12 -14 -14 -23 -1 -9 -14 -31 -29 -49 -15 -18 -30 -43 -34 -55 -3 -13 -9 -23 -13 -23 -4 0 -22 -30 -41 -67 -36 -72 -53 -96 -62 -87 -3 3 -3 -4 0 -17 4 -14 2 -20 -4 -16 -6 4 -13 -2 -16 -12 -4 -16 2 -21 32 -26 53 -10 150 -58 197 -99 56 -48 108 -128 134 -207 18 -54 21 -81 18 -170 -3 -99 -6 -110 -41 -183 -45 -90 -122 -172 -199 -210 l-52 -26 -312 0 c-172 0 -319 -3 -328 -6 -9 -3 -16 -12 -16 -20 0 -8 -4 -14 -10 -14 -5 0 -10 -8 -10 -17 0 -15 -2 -16 -10 -3 -8 12 -10 10 -10 -8 0 -28 -18 -64 -36 -75 -8 -4 -14 -19 -14 -33 0 -14 -4 -22 -10 -19 -6 3 -15 -6 -21 -22 -6 -15 -17 -36 -26 -45 -8 -9 -12 -21 -8 -27 3 -7 0 -8 -9 -5 -10 4 -16 1 -16 -9 0 -9 -8 -22 -18 -29 -10 -7 -19 -24 -19 -37 -1 -13 -8 -31 -16 -40 -8 -9 -18 -26 -21 -38 -4 -13 -12 -23 -17 -23 -6 0 -7 -5 -3 -12 5 -8 2 -9 -10 -5 -10 4 -16 2 -15 -6 3 -24 -1 -38 -10 -33 -5 3 -16 -15 -26 -40 -9 -25 -23 -48 -31 -51 -8 -3 -11 -9 -8 -14 3 -5 -4 -21 -15 -35 -12 -15 -21 -33 -21 -40 0 -8 -4 -14 -10 -14 -10 0 -40 -52 -40 -70 0 -7 170 -10 541 -10 590 0 586 0 774 62 107 35 227 91 310 146 87 56 207 161 199 174 -4 7 -2 8 4 4 22 -13 159 170 230 309 72 141 108 262 132 446 13 95 1 274 -25 387 -8 34 -17 76 -20 93 -15 82 -115 279 -198 387 -95 124 -248 253 -397 335 -101 55 -115 59 -136 36z m30 3 c3 -5 -1 -9 -9 -9 -8 0 -12 4 -9 9 3 4 7 8 9 8 2 0 6 -4 9 -8z m-117 -189 c-4 -3 -7 0 -7 7 0 7 3 10 7 7 3 -4 3 -10 0 -14z"/>
</g>
<g id="layer127" fill="#baebf6" stroke="none">
<path d="M6448 2349 c15 -16 16 -33 0 -23 -8 5 -9 0 -6 -14 4 -12 2 -22 -3 -22 -5 0 -9 -6 -9 -14 0 -7 -10 -20 -23 -29 -13 -8 -23 -26 -25 -41 -1 -15 -9 -34 -17 -42 -8 -9 -15 -21 -15 -29 0 -7 -9 -15 -21 -18 -11 -3 -19 -11 -18 -19 3 -27 -1 -37 -16 -32 -11 4 -13 2 -10 -9 4 -8 -1 -17 -9 -20 -9 -4 -16 -14 -16 -22 0 -9 -4 -13 -10 -10 -6 4 -7 -1 -3 -11 4 -10 0 -20 -11 -26 -9 -5 -14 -13 -11 -17 2 -5 -2 -14 -10 -21 -8 -7 -15 -19 -15 -27 0 -8 -5 -11 -11 -7 -8 4 -9 -1 -4 -16 6 -19 4 -22 -9 -17 -13 5 -15 1 -12 -18 3 -17 -2 -29 -15 -39 -13 -9 -17 -19 -12 -32 6 -17 5 -18 -12 -4 -17 14 -18 13 -12 -2 3 -9 -1 -22 -9 -28 -8 -7 -14 -23 -14 -35 0 -17 -5 -22 -17 -19 -10 3 -27 -2 -38 -11 -11 -9 -15 -14 -9 -11 7 3 14 -3 17 -15 5 -17 3 -18 -10 -7 -14 11 -15 10 -10 -7 23 -76 29 -126 25 -214 -3 -90 -7 -105 -42 -175 -70 -142 -193 -236 -308 -236 -55 0 -58 -1 -58 -25 0 -14 -3 -25 -8 -25 -4 0 -13 -14 -20 -30 -8 -17 -18 -28 -23 -24 -5 3 -9 -1 -9 -8 0 -14 -67 -149 -79 -158 -3 -3 -20 -25 -36 -50 -17 -25 -35 -51 -42 -57 -6 -7 -14 -26 -18 -43 -4 -16 -13 -30 -21 -30 -8 0 -14 -6 -14 -13 0 -7 -11 -29 -25 -48 -13 -20 -21 -39 -18 -43 4 -3 -1 -6 -11 -6 -9 0 -14 -5 -11 -10 3 -6 1 -10 -4 -10 -6 0 -10 -3 -9 -7 3 -18 -15 -63 -26 -63 -17 0 -40 -40 -24 -41 7 0 3 -4 -9 -9 -13 -6 -23 -18 -23 -30 0 -11 -4 -20 -10 -20 -5 0 -10 -11 -10 -25 l0 -25 266 0 c288 0 326 5 499 62 107 35 227 91 310 146 87 56 207 161 199 174 -4 7 -2 8 4 4 22 -13 159 170 230 309 72 141 108 262 132 446 13 95 1 274 -25 387 -8 34 -17 76 -20 92 -13 75 -103 256 -182 368 -54 76 -112 134 -126 125 -6 -3 -7 -1 -3 5 4 6 -4 16 -16 23 -19 9 -21 9 -10 -2z"/>
<path d="M6293 2083 c4 -3 10 -3 14 0 3 4 0 7 -7 7 -7 0 -10 -3 -7 -7z"/>
<path d="M5613 973 c4 -3 10 -3 14 0 3 4 0 7 -7 7 -7 0 -10 -3 -7 -7z"/>
</g>
<g id="layer128" fill="#c2eef4" stroke="none">
<path d="M6740 1940 c0 -7 3 -10 7 -7 3 4 3 10 0 14 -4 3 -7 0 -7 -7z"/>
<path d="M6720 1880 c0 -7 3 -10 7 -7 3 4 3 10 0 14 -4 3 -7 0 -7 -7z"/>
<path d="M6760 1861 c0 -6 4 -13 10 -16 6 -3 7 1 4 9 -7 18 -14 21 -14 7z"/>
<path d="M6727 1849 c7 -7 15 -10 18 -7 3 3 -2 9 -12 12 -14 6 -15 5 -6 -5z"/>
<path d="M6744 1808 l-19 -23 23 19 c21 18 27 26 19 26 -2 0 -12 -10 -23 -22z"/>
<path d="M6772 1787 c1 -14 5 -24 9 -21 9 5 6 31 -4 40 -4 4 -6 -4 -5 -19z"/>
<path d="M6750 1781 c0 -7 -4 -9 -10 -6 -5 3 -10 1 -10 -4 0 -6 4 -11 9 -11 13 0 25 20 17 27 -3 4 -6 1 -6 -6z"/>
<path d="M6805 1670 c-3 -5 -1 -10 4 -10 6 0 11 5 11 10 0 6 -2 10 -4 10 -3 0 -8 -4 -11 -10z"/>
<path d="M6668 1623 c6 -2 18 -2 25 0 6 3 1 5 -13 5 -14 0 -19 -2 -12 -5z"/>
<path d="M6800 1510 c0 -5 5 -10 11 -10 5 0 7 5 4 10 -3 6 -8 10 -11 10 -2 0 -4 -4 -4 -10z"/>
<path d="M6806 1475 c-3 -8 -1 -15 4 -15 6 0 10 7 10 15 0 8 -2 15 -4 15 -2 0 -6 -7 -10 -15z"/>
<path d="M6830 1451 c0 -7 -4 -10 -9 -6 -5 3 -12 1 -15 -4 -4 -5 -2 -12 3 -15 11 -7 36 22 27 31 -3 3 -6 1 -6 -6z"/>
<path d="M6603 1443 c4 -3 10 -3 14 0 3 4 0 7 -7 7 -7 0 -10 -3 -7 -7z"/>
<path d="M6813 1400 c3 -16 21 -14 25 2 3 10 2 10 -6 -1 -7 -9 -11 -10 -15 -2 -4 7 -5 8 -4 1z"/>
<path d="M6805 1314 c0 -12 4 -26 9 -31 5 -4 6 -3 2 4 -3 6 -2 14 4 18 14 9 12 32 -3 32 -7 0 -13 -10 -12 -23z"/>
<path d="M6810 1260 c0 -7 3 -10 7 -7 3 4 3 10 0 14 -4 3 -7 0 -7 -7z"/>
<path d="M6723 1193 c4 -3 10 -3 14 0 3 4 0 7 -7 7 -7 0 -10 -3 -7 -7z"/>
<path d="M6746 1184 c-8 -22 -4 -25 11 -9 7 8 9 16 4 19 -5 3 -12 -1 -15 -10z"/>
<path d="M6784 1188 c-4 -7 -3 -8 4 -4 12 7 16 16 8 16 -3 0 -8 -5 -12 -12z"/>
<path d="M6727 1139 c6 -6 9 -18 6 -25 -5 -14 8 -19 20 -8 8 8 -15 44 -27 44 -6 0 -5 -5 1 -11z"/>
<path d="M6774 1118 c-4 -7 -3 -8 4 -4 12 7 16 16 8 16 -3 0 -8 -5 -12 -12z"/>
<path d="M6693 1093 c4 -3 10 -3 14 0 3 4 0 7 -7 7 -7 0 -10 -3 -7 -7z"/>
<path d="M6765 1090 c-3 -5 -1 -10 4 -10 6 0 11 5 11 10 0 6 -2 10 -4 10 -3 0 -8 -4 -11 -10z"/>
<path d="M6733 1083 c4 -3 10 -3 14 0 3 4 0 7 -7 7 -7 0 -10 -3 -7 -7z"/>
<path d="M6653 1063 c4 -3 10 -3 14 0 3 4 0 7 -7 7 -7 0 -10 -3 -7 -7z"/>
<path d="M6721 1059 c-1 -9 5 -22 13 -28 12 -10 17 -8 26 8 9 17 8 21 -4 21 -10 0 -13 -6 -10 -15 4 -8 3 -15 0 -15 -4 0 -11 10 -16 23 -6 15 -9 17 -9 6z"/>
<path d="M6710 1010 c-13 -8 -12 -10 3 -10 9 0 17 5 17 10 0 12 -1 12 -20 0z"/>
<path d="M6713 983 c4 -3 10 -3 14 0 3 4 0 7 -7 7 -7 0 -10 -3 -7 -7z"/>
<path d="M6643 950 c5 -19 36 -25 51 -10 8 10 6 11 -13 5 -15 -5 -27 -2 -33 6 -8 11 -9 11 -5 -1z"/>
<path d="M6688 923 c-20 -5 -24 -18 -9 -28 6 -3 15 4 21 15 6 11 9 19 8 19 -2 -1 -11 -3 -20 -6z"/>
<path d="M6646 858 c3 -4 11 -5 19 -1 21 7 19 12 -4 10 -11 0 -18 -5 -15 -9z"/>
<path d="M6566 791 c-4 -5 3 -7 14 -4 23 6 26 13 6 13 -8 0 -17 -4 -20 -9z"/>
<path d="M6570 760 c0 -7 3 -10 7 -7 3 4 3 10 0 14 -4 3 -7 0 -7 -7z"/>
<path d="M6508 713 c7 -3 16 -2 19 1 4 3 -2 6 -13 5 -11 0 -14 -3 -6 -6z"/>
<path d="M6544 706 c1 -8 5 -18 8 -22 4 -3 5 1 4 10 -1 8 -5 18 -8 22 -4 3 -5 -1 -4 -10z"/>
<path d="M6493 685 c0 -8 4 -12 9 -9 4 3 8 9 8 15 0 5 -4 9 -8 9 -5 0 -9 -7 -9 -15z"/>
<path d="M6520 680 c0 -5 5 -10 11 -10 5 0 7 5 4 10 -3 6 -8 10 -11 10 -2 0 -4 -4 -4 -10z"/>
<path d="M6480 650 c0 -7 3 -10 7 -7 3 4 3 10 0 14 -4 3 -7 0 -7 -7z"/>
<path d="M6133 633 c4 -3 10 -3 14 0 3 4 0 7 -7 7 -7 0 -10 -3 -7 -7z"/>
<path d="M6450 633 c8 -3 19 -11 23 -17 6 -7 7 -6 4 4 -2 8 -12 16 -23 17 -13 2 -15 1 -4 -4z"/>
<path d="M6494 628 c-4 -7 -3 -8 4 -4 12 7 16 16 8 16 -3 0 -8 -5 -12 -12z"/>
<path d="M6415 620 c3 -5 8 -10 11 -10 3 0 2 5 -1 10 -3 6 -8 10 -11 10 -3 0 -2 -4 1 -10z"/>
<path d="M6390 600 c0 -7 3 -10 7 -7 3 4 3 10 0 14 -4 3 -7 0 -7 -7z"/>
<path d="M5960 590 c0 -7 3 -10 7 -7 3 4 3 10 0 14 -4 3 -7 0 -7 -7z"/>
<path d="M6406 583 c-4 -13 -12 -23 -18 -23 -6 0 -8 -3 -5 -6 9 -9 -34 -41 -66 -49 -15 -4 -24 -11 -21 -16 3 -5 -5 -18 -17 -28 l-22 -18 24 2 c13 1 23 8 21 15 -1 6 7 14 18 17 11 3 20 9 20 14 0 5 5 9 11 9 5 0 7 -6 3 -12 -4 -8 -3 -10 2 -5 5 5 9 14 9 20 1 7 7 11 14 9 7 -1 10 2 5 9 -5 8 -2 10 9 6 9 -3 18 1 21 9 8 22 7 26 -4 19 -6 -3 -7 1 -4 10 6 14 8 14 21 -2 8 -10 12 -12 8 -5 -3 7 0 12 8 12 7 0 14 7 14 14 0 11 -5 12 -18 6 -12 -7 -19 -6 -22 3 -2 7 -7 2 -11 -10z"/>
<path d="M6313 553 c4 -3 10 -3 14 0 3 4 0 7 -7 7 -7 0 -10 -3 -7 -7z"/>
<path d="M6345 549 c-4 -6 -5 -12 -2 -15 2 -3 7 2 10 11 7 17 1 20 -8 4z"/>
<path d="M6266 541 c-4 -5 -2 -12 3 -15 5 -4 12 -2 15 3 4 5 2 12 -3 15 -5 4 -12 2 -15 -3z"/>
<path d="M5930 500 c0 -7 3 -10 7 -7 3 4 3 10 0 14 -4 3 -7 0 -7 -7z"/>
<path d="M6253 473 c4 -3 10 -3 14 0 3 4 0 7 -7 7 -7 0 -10 -3 -7 -7z"/>
<path d="M6246 421 c-4 -5 3 -7 14 -4 23 6 26 13 6 13 -8 0 -17 -4 -20 -9z"/>
<path d="M6163 375 c0 -7 6 -11 14 -8 7 3 13 6 13 8 0 2 -6 5 -13 8 -8 3 -14 -1 -14 -8z"/>
<path d="M6083 346 c-2 -19 -1 -20 8 -3 8 13 14 15 23 7 10 -7 16 -7 25 3 8 11 4 14 -22 14 -26 0 -33 -5 -34 -21z"/>
<path d="M5860 303 c0 -7 -5 -13 -12 -13 -6 0 -9 -3 -5 -6 3 -4 18 3 32 14 24 19 24 21 6 19 -12 -1 -21 -7 -21 -14z"/>
<path d="M5993 299 c-1 -11 3 -16 11 -13 16 6 17 31 1 31 -6 0 -12 -8 -12 -18z"/>
<path d="M5895 281 c1 -8 8 -17 15 -19 8 -3 10 0 5 8 -4 7 -2 16 6 21 10 6 8 8 -7 7 -13 -1 -21 -8 -19 -17z"/>
<path d="M5960 290 c0 -5 5 -10 11 -10 5 0 7 5 4 10 -3 6 -8 10 -11 10 -2 0 -4 -4 -4 -10z"/>
<path d="M5856 267 c-16 -12 -16 -14 -3 -14 9 0 18 6 21 14 7 16 4 16 -18 0z"/>
<path d="M5710 230 c-12 -7 -10 -9 7 -7 12 0 19 5 17 9 -6 10 -6 10 -24 -2z"/>
<path d="M5775 230 c-3 -6 1 -7 9 -4 18 7 21 14 7 14 -6 0 -13 -4 -16 -10z"/>
<path d="M5813 233 c4 -3 10 -3 14 0 3 4 0 7 -7 7 -7 0 -10 -3 -7 -7z"/>
</g>
<g id="layer129" fill="#fefefe" stroke="none">
<path d="M0 1985 l0 -1985 3545 0 3545 0 0 1985 0 1985 -3545 0 -3545 0 0 -1985z m2253 1568 c631 -667 2251 -2403 2254 -2415 5 -17 41 -18 584 -18 l579 0 64 29 c35 16 81 45 103 64 140 127 139 349 -1 487 -49 48 -158 102 -201 100 -128 -7 -1466 2 -1463 9 2 5 215 228 473 495 l470 486 321 0 c403 0 454 -7 671 -92 395 -154 671 -470 786 -898 30 -112 31 -120 31 -340 0 -220 -1 -228 -31 -340 -120 -450 -431 -786 -859 -929 -190 -64 -156 -62 -1089 -61 l-850 0 -42 42 c-23 23 -40 45 -37 49 3 5 -361 394 -808 865 -447 471 -1154 1217 -1571 1658 -417 440 -773 816 -790 834 l-31 32 691 0 692 0 54 -57z m2570 47 c548 0 657 -2 657 -14 0 -7 -322 -352 -715 -765 -422 -443 -713 -757 -709 -764 6 -13 -75 69 -456 463 l-257 265 23 20 c56 49 754 785 754 796 0 7 9 9 23 5 12 -3 318 -6 680 -6z m-1971 -2536 l138 -140 -25 -24 c-13 -12 -22 -27 -18 -33 3 -6 2 -8 -3 -5 -5 4 -173 -167 -374 -378 l-365 -384 -687 0 c-379 0 -688 3 -688 7 0 4 33 41 73 82 40 42 366 387 726 768 l652 692 217 -222 c119 -122 279 -285 354 -363z"/>
<path d="M4035 200 c10 -11 20 -20 23 -20 3 0 -3 9 -13 20 -10 11 -20 20 -23 20 -3 0 3 -9 13 -20z"/>
<path d="M1409 578 c-106 -112 -238 -250 -293 -308 l-101 -105 564 -3 c563 -2 565 -2 587 19 19 18 21 25 12 45 -6 13 -15 21 -19 18 -5 -3 -9 0 -9 6 0 7 -7 9 -16 6 -11 -4 -15 -2 -11 8 4 9 -2 17 -14 21 -10 4 -19 11 -19 16 0 6 -5 7 -12 3 -6 -4 -8 -3 -5 3 4 6 -2 21 -13 33 -11 13 -20 18 -20 11 0 -6 -18 7 -40 29 -22 23 -38 45 -35 51 4 5 -3 9 -14 9 -12 0 -21 7 -21 15 0 16 -34 38 -44 28 -3 -3 -7 7 -7 23 -1 17 -3 22 -6 12 -2 -10 -9 -18 -15 -18 -5 0 -8 5 -6 12 6 18 -23 47 -40 40 -11 -4 -14 -1 -10 9 3 8 0 23 -8 34 -8 10 -14 16 -14 12 0 -4 -9 2 -20 13 -12 12 -18 25 -15 30 3 5 0 8 -7 5 -15 -5 -71 43 -81 68 -6 15 -26 22 -51 18 -5 -1 -6 7 -3 19 3 11 4 20 2 20 -2 0 -90 -91 -196 -202z"/>
</g>


</svg>